<svg width="677" height="2803" fill="none" xmlns="http://www.w3.org/2000/svg"><path fill="#fff" d="M0 0h677v2803H0z"/><g id="Anatomie.enfant (2)"><g id="face" fill="#CD0F0F"><g id="Vector"><path d="M-16.535 2.472c-39.2 1.3-57.8 6.7-89.3 25.5-34 20.3-52.8 39.2-65 65.4-11.3 24-14.5 44.7-13 83.4 1.4 38.4 5.2 62.6 14.1 90.3 1.6 5.2 2.8 9.5 2.6 9.6-.2.1-4.3.7-9.3 1.3-15.6 1.9-25.1 6.9-29.8 15.6-1.9 3.7-2.2 5.7-2.2 15.7 0 9.6.5 13 2.8 20.8 5.1 17.1 22.2 56.9 27.9 64.8 5.5 7.7 10.9 10.6 20.7 11.3l7.5.6 1.8 8.5c4.6 21.5 9.6 31.5 22.2 44.2 7.6 7.7 9.6 10.3 11.1 14.8 2.8 8.4 2.3 16.1-2 28.7-13.1 38.4-33.2 64.601-61 79.4-4.4 2.3-10 5.6-12.3 7.2-6.8 4.6-22.6 11.6-30 13.3-4.4 1-8.7 1.4-12.7.9-7.2-.7-25.5 1.6-36.2 4.5-19.4 5.5-35.7 15.1-49.9 29.4-20.3 20.5-38 55.9-44.3 88.6-4.9 25.5-5 46.2-.4 77 3.4 22.3 3.7 43.5.9 55.5-1 4.4-5 15.9-8.8 25.5-3.9 9.6-10.6 27.2-15 39s-10.6 28-13.8 36c-9.8 24.6-14 39.5-15.5 55.498-.9 9-3 13.1-16 31.4-14.3 20.3-20.5 30.3-28.1 45.4-14.7 29.1-22.4 51.7-36.4 106.7-5.4 21.2-12.1 46.1-15 55.5-8.7 28.7-32 97.6-35.8 105.4-6 12.9-14.1 19.4-32.2 26-9.3 3.4-16.8 8.3-33 21.1-19.7 15.8-29.2 21.6-44.8 27.4-8 3.1-17 10.4-19.2 15.6-.7 1.8-1.1 5.3-.8 8.6 1.1 12.6 8.9 13.9 41.6 6.8 1.9-.4 2.2 0 2.2 2.3 0 1.7-9.2 20.6-22.1 45.8-23.2 45.1-25.2 50.1-21.5 53.8 4.2 4.2 18.6 2.4 25.6-3.2 1.9-1.5 10.7-12.2 19.5-23.8 22.4-29.4 22.2-29.2 23-27 1.1 2.8-6.7 20.7-16.5 37.7-9.9 17.3-15.7 29.2-19 39-4.5 13.4-6.3 30-3.9 35.3 1.2 2.7 6.4 4.7 12.4 4.7 3.1 0 4.4-.7 8.2-4.8 5.2-5.6 15.3-20.4 19.3-28.1 3.3-6.7 15.4-34.2 23.5-53.4 6-14.4 7.5-15.7 7.5-6.7 0 2.8-2.3 11.8-6.1 23.5-6.8 21.4-8.9 30-12.4 49.8-2.6 14.7-2.5 16.2 1.7 19.1 3.1 2.2 10.6 2 14.5-.4 3.9-2.3 7.2-9.1 18.3-37 10.1-25.2 20.9-46.9 26.1-52.1 7.4-7.4 7.8-5 2.8 15.3-9.9 40.1-10.8 47.3-6.5 51.6 2.1 2.2 3.7 2.7 9.3 3 8.1.5 12.1-1.2 15-6.6 3.2-5.7 21.6-78.6 26.3-104.2 1.2-6.3 4.1-17.8 6.5-25.5 10.9-35.2 14.9-51.8 18.5-77 2.3-16.2 4.9-27.6 8.1-35.7 2.6-6.7 13-25.9 34.4-63.8 64.7-114.6 78.3-143.7 84.5-179.7 1.8-10.5 2.5-12.3 9-24.3 13.4-24.6 27.6-57.8 38-89 2.8-8.498 11.9-38.898 20.1-67.398 14.6-50.5 18.2-60.799 20-56 .4 1 3.9 34.7 7.8 74.9 13.4 135.898 14.4 148.098 16.6 199.198 1.7 39.2 1.3 44.2-4.2 59.2-3.1 8.3-3.6 11.1-4.1 21.1-.2 6.4.1 15.6.8 21 1.4 11.6.7 16.6-7.4 50.6-6.1 25.5-8.7 38.7-14.5 73.9-13.2 79.7-16.6 114.4-18.1 184.5-.6 31.6-1.3 43.9-2.9 56-7.2 53.9-8.8 111.9-4.6 165 2.6 31.7 8.4 83.1 11.7 104 2.8 17 3.2 22 3.2 39 .1 22.1-.3 25.3-8.5 80.6-6.7 45.7-10.5 67.3-15.5 89.4-9.6 42.1-11.4 55.4-11.4 83.8 0 19-.4 23-5.5 61-9.7 72.4-9.9 74.5-9.9 106.2-.1 36.4.6 41.6 11.3 82.4 4.8 18.3 4.7 35.4-.4 81.2-4.3 38-5.5 43.2-15.3 66.4-7.6 18-9.9 32.3-6.7 41.5 1.3 3.7 1.3 4.3-.9 9-1.2 2.7-4.6 8.7-7.5 13.3-7.5 12-10.5 18.4-14.2 29.7-5.5 17.5-13.7 31.9-33.9 60.1-11.5 16-11.7 17.7-2.6 22.7 2.3 1.3 4.9 3.9 6.1 6.2 3.2 5.8 6.7 8.9 14.8 13.6 4 2.3 9.7 5.6 12.7 7.4 6.6 4 22.2 10.9 30.5 13.7 7.1 2.3 12 1.8 18.3-1.8l4.2-2.5 2.7 3.2c5.7 6.7 14.8 8.4 28.6 5.3 12.6-2.9 20.9-8.1 24.8-15.7 3.1-6 17.5-42.8 20.9-53.4 4.3-13.4 5.3-23.3 4-41.2-.5-8-1.5-18.4-2.1-23.1-2-14.9.2-24.6 8.4-36.9 6.1-9 8.3-13.7 10.6-22.1 3.4-12 3.6-21.4 1-40.5-2.9-21.6-3.2-55.2-.5-77.5 7.4-62.8 16.5-106.7 30.7-147.2 12-34.6 14.3-47.6 14.3-81.3 0-21.1-.3-27.5-2.3-41-2-13.4-2.3-18.5-1.8-31 .9-24.6 5.2-38 20.3-63.1 5.3-8.7 11.5-20 13.9-24.9 14.1-29.5 34.9-114.8 48.9-200 4.8-29.7 5.3-34.8 7.5-78 .8-15.8 1.6-21.3 6.6-45.5 6.8-33.4 13.7-64.5 20.4-92.5 8.8-37.2 14.1-72.4 18.6-123.6.8-8.5 1.4-9.2 10.3-13.8 6.8-3.5 13.1-4.3 19.9-2.5 6.8 1.7 15.3 7.1 15.3 9.7 0 4.7 5.4 54.3 7.6 69.6 3.1 22.2 6.3 38.4 12.5 64.5 11.4 47.7 24.8 112.6 25.4 123.1.3 4.4 1 16.3 1.5 26.5 2 35.9 3.6 47.8 13.1 99.5 10 54.5 25.1 116.1 35.9 147 4 11.2 11.7 26.8 20.2 40.5 11.3 18.3 15.6 28.6 18.9 45.3 2.3 12 2.5 31.6.4 46.1-5.4 37.7-4.6 67.5 2.7 97.1 1.1 4.4 5.5 18.6 9.8 31.5 14.3 42.8 22.7 83.5 29.6 143.5 2.7 22.7 2.4 57.2-.5 79-3.8 28.2-1.1 42.8 11.4 61.4 8.5 12.6 10.6 22.1 8.6 37.5-1.9 14.4-2.9 36.1-2 45.7.5 5.8 2.1 12.8 4.4 19.7 6.4 19.2 19.6 51.2 22.9 55.4 4 5.3 11.9 9.7 21.5 12 14.2 3.4 23.6 1.7 29.4-5.1l2.7-3.2 4.2 2.5c6.3 3.6 11.2 4.1 18.3 1.8 8.3-2.8 23.9-9.8 30.5-13.7 3-1.8 8.6-4.9 12.3-6.9 7.8-4.3 13-9.1 15.5-14.4 1.1-2.5 3.1-4.4 6.2-6 8.6-4.5 8.3-6.7-3.2-22.8-21-29.6-27.3-40.8-34-60.7-4.1-12.4-6.7-17.8-14.6-30-2.4-3.7-5.4-9.1-6.7-12-2.3-4.9-2.3-5.5-1-9.2 3.6-10.1.9-24.4-9-47.4-3-6.9-6.1-15.5-6.9-19.1-4.4-19.2-9.8-70.5-9.7-92.5 0-17.1.5-20.1 7.4-46.5 6.2-23.7 7.2-32.8 7.1-66 0-32.8-.4-36.8-9.6-103-4.7-34.3-5.1-38.3-5.8-66-.9-33-1.6-38.5-10-76.1-6.5-29-9.9-48.1-16.9-95.4-8.2-54.7-8.5-58.3-8.5-80.5 0-17.1.4-21.8 3.1-38.5 4.8-28.7 11.3-91.8 13.3-127.5 2.4-44.5-.3-103.8-6.6-146.5-1-6.6-1.8-24.4-2.4-52-1.4-65.9-4-95.1-14.6-162.5-6.8-43.3-11.6-68.6-18-95.7-8-34.2-8.9-40-7.3-50.1.6-4.2 1.1-12.5 1.1-18.3 0-9.9-.3-11.6-4.1-22.6-2.3-6.6-4.5-15.3-5.1-19.4-1.4-11.3 1.9-80.3 6-125.2 4.5-49.4 18.2-186.398 18.8-189.198l.8-2.9 2.1 3c1.3 1.901 8.2 23.8 17.7 56.5 15.7 54.201 21.5 72.398 30.1 94.898 6.5 17.1 18.9 44.2 26.5 58 3.5 6.3 6.9 12.6 7.6 14 .8 1.4 1.4 3.8 1.4 5.5 0 4.5 3.6 20.8 7.1 32 6.3 20.5 16.5 42.5 36.3 78.4 5.7 10.2 13.6 24.7 17.6 32.1 4 7.4 14.8 26.8 24 43 38.5 68 38.2 67.4 43.4 103.1 3 20.3 8.1 41.9 16 67.4 3.1 9.9 7.2 25.6 9.1 35 3.7 18.2 19 80.7 23 94.1 2 6.6 3.2 8.8 6.2 11.4 3.5 3.1 3.9 3.2 10.9 2.8 8.2-.4 11.7-2.5 12.8-8 .7-3.5-2.3-18.5-8.8-44.7-5.5-21.9-5.1-24.6 2.3-17.2 5.2 5.2 15.9 26.6 26.1 52 14.6 36.7 16.2 39.1 26.2 39.1 3.8 0 5.4-.6 7.8-2.8l3.1-2.7-1.6-10c-3-18.7-6.5-33-13-53.8-6.3-20.1-7.6-27.4-5.5-30.7.7-1.1 1.1-.9 1.9 1.2 2.7 7.1 20.6 48.6 25 58 7.1 15.3 18.9 32.7 26 38.5 3.5 2.9 15.2.6 17-3.4 1.6-3.4 1.4-14.1-.5-23.1-2.9-14.1-8.7-27.4-22.7-51.7-7.3-12.5-16.7-33-16.7-36.2 0-4.6 2.4-1.8 31.2 36.1 10.1 13.3 13.4 16 21.8 18.2 7.2 1.9 12.9 1.4 15.6-1.3 3.7-3.8 1.7-8.7-21.5-53.9-12.4-24.2-22.1-44.2-22.1-45.7 0-2.3.3-2.6 2.8-2.2 1.5.3 7.4 1.4 13.2 2.5 15.1 2.9 20.2 2.7 24.1-.8 2.6-2.3 3.3-3.8 3.7-8 .2-2.8.2-6.3-.2-7.7-1.3-5.3-12.7-15.4-19.1-16.9-4.9-1.2-18.8-8-25.1-12.3-3.3-2.2-12.4-9.1-20.4-15.3-18.2-14.2-24.8-18.4-33-21.1-15.3-5.1-25.3-12.6-31.3-23.7-3.1-5.7-28.5-80.7-37.8-111.7-3.3-11-8.7-31-12-44.5-18.1-73.5-31.8-108.5-56.7-145-4.7-6.9-11.6-16.8-15.2-22.2-8.5-12.4-9.5-14.9-11.3-28.8-1.7-12.698-4.8-24.298-10.7-39.498-2.1-5.5-9.9-26-17.3-45.5s-15.5-40.5-18-46.5c-6.6-16.2-8.2-24.2-8.1-41.5 0-10.6.8-19.6 2.9-33.5 2.4-15.7 2.9-22.2 2.9-37.5-.1-33.3-5.4-57.1-19.4-85.5-9.3-19.1-17.5-31.1-28.9-42.6-22.3-22.3-48.2-32.599-83.6-33.3-10.1-.299-15.4-.8-19-2.1-7.4-2.5-20.8-8.9-25.7-12.2-2.4-1.6-7.9-4.9-12.3-7.2-21.9-11.599-38.3-29.5-51-55.6-8.7-17.9-12.7-29.7-13.3-39.1-.7-12.8 1.1-16.8 12.4-28.2 12.6-12.7 17.6-22.7 22.2-44.2l1.8-8.5 7.5-.5c9.2-.7 15.4-4 20.4-10.8 3.9-5.4 19-38.7 24.5-54.2 5.6-15.5 7.3-24.6 6.8-34.8-.9-17.9-9.9-25.7-32.3-28.5-4.9-.6-9.2-1.2-9.4-1.3-.1-.2 1.1-4.5 2.8-9.6 8.5-26 12.4-50.5 14.1-88.8 1-24.9.2-40.4-2.9-54.9-7.9-36.3-27.8-64.5-61-86.5-25.1-16.6-39-23.3-59.4-28.5-23.3-6-38.6-7.2-76.3-5.9zm59.1 13.1c21.4 3.8 38.4 10.2 56.5 20.9 41 24.5 63 53.1 71.5 93.3 2.6 12.2 3 36.7 1.1 57.5-2.4 24.8-7.5 65.3-8.4 66.2-.4.4-1.8-6.5-3.1-15.5-4.6-32.5-9.3-51.3-18.3-73.7-10-24.9-22.7-45.8-29.9-49.6-5.3-2.7-13.3-1.5-23.1 3.4-12.2 6.1-20.4 12.7-38.4 30.9-22.8 22.8-31.5 27.9-50 29-18.3 1.1-25.8-3-50.8-28.2-18.5-18.5-27.7-25.9-40.1-32.2-8.5-4.3-17.3-5.5-22.2-2.9-6.6 3.4-18.6 22.3-27.3 43-10.9 25.7-16 45.1-21.1 80.3-1.3 9-2.7 15.9-3.1 15.5-.8-.8-6.1-42.6-8.3-65.8-3.6-38.2-.4-64 11-88.2 9.2-19.3 22.5-35.1 42-49.6 28.5-21.4 51.5-31 84.5-35.6 10.9-1.5 67.1-.5 77.5 1.3zm-135.9 111.5c10 6.5 23.3 17.8 38.4 32.7 16.4 16.2 23.3 21.4 32.8 24.7 5.9 2 8.6 2.3 22.2 2.3 12.5 0 16.5-.4 20.8-1.8 7.5-2.7 18.7-11.3 35.9-27.9 15.1-14.6 37.2-32.2 41.8-33.4 3.8-.9 7.2.3 11.6 4.3 9.9 8.9 17.4 23.8 26.9 53.4 7.8 24 11.4 38.6 12.9 53.1 4.1 37.1-4 133-15 177.9-3.6 15.2-9.6 28-17.8 38.1-10.4 12.9-21.7 21-44 31.3-12.2 5.7-14.7 6.5-19.9 6.5-5.9 0-6 .1-15.3 7.5-5.2 4.2-11.7 8.7-14.6 10-9.4 4.5-24.8 5.4-38.8 2.3-7.2-1.6-14.8-5.7-24.3-13.2-8.2-6.5-8.5-6.6-14.4-6.6-5.2 0-7.6-.8-20-6.5-23.5-10.9-37.8-21.8-47.5-36.1-11.1-16.4-15-30.1-21.7-75.9-7.8-54-10.7-110.3-7.1-138.2 2.1-15.6 4.1-23.8 12-48.9 9.7-30.7 20-50.1 30.4-57.1 4.8-3.2 7.9-2.9 14.7 1.5zm-76.4 161.2c6.6 1.9 10.7 6.4 13.2 14.7.7 2.2.6 2.2-5.6-.7-5-2.4-7.7-3-12.8-3-8.1 0-11.9 2.1-14.9 8.2-2.4 5.1-2.5 6.3-1 10.7 1.6 4.5 3.3 3.8 4.8-1.9 1.5-6 4.5-10 7.4-10 3.1 0 15.1 9.2 18.2 13.8 1.4 2.1 3 6.3 3.5 9.3 1.1 6.6 2.9 23.3 2.5 23.7-.2.2-1.9-1.1-3.8-2.8l-3.6-3.1v-10.7c0-5.9-.4-12.3-.9-14.2l-.8-3.5-2.4 4.5c-3.2 6.1-5 13.4-5 20.1 0 4.4.6 6.4 2.8 10 4.2 6.4 6.5 8.2 11.2 8.2 2.8 0 4.1.4 4.4 1.6.3.9.7 7.2 1.1 14.1.4 6.9.9 13.3 1.1 14.2.3 1.1-.5 2.2-2.5 3.2-7.2 3.8-11.4 1.3-20-11.9-13.5-20.8-22.3-42.2-25.6-62.3-1-5.7-1.5-12.5-1.3-15.2.9-8.6 6.5-13.7 18.3-16.6 6.4-1.6 7.2-1.6 11.7-.4zm350.8.6c12.1 2.7 18 9 18 19.2 0 19.8-10.8 49.7-26.9 74.4-8.8 13.5-12.9 16-20.2 12.2-2-1-2.8-2.1-2.5-3.2.2-.9.7-6.9 1.1-13.2.9-16.9.8-16.7 5.6-16.7 4.5 0 6.6-1.6 11.1-8.2 3-4.2 3-4.7 2.5-12.5-.5-8.2-2.7-15.6-5.7-19.7-1.7-2.1-1.7-1.9-2.8 6.2-.6 4.6-.8 8.7-.6 9.1 1 1.6.6 9.6-.6 11.5-.8 1.1-2.7 2.9-4.3 3.8l-3 1.8.7-2.8c.4-1.5 1.1-7.5 1.6-13.3.7-7.8 1.6-11.9 3.3-15.2 2.3-4.5 11.1-12.4 17.1-15.4 3-1.5 3.2-1.5 5.7 1.3 1.5 1.6 3.2 5.2 4 8 1.5 6.1 3.5 6.6 4.4 1.1 1-5.6-.2-9.5-4-13.5-5.1-5.5-11.1-4.8-23.5 2.5-2.8 1.6-5.3 3-5.5 3-.9 0-.5-5.4.6-9.3 1.4-5 5.5-9.5 10.4-11.2 5.1-1.8 5.3-1.8 13.5.1zm-267 202.9c7 4.1 13.5 8.4 14.5 9.5.9 1 12.2 28.4 24.9 60.7 26.2 66.3 25.2 61.7 13.4 59.5-7.5-1.4-12.7-4.7-16.8-10.7-6.2-9-27.6-56.5-37-81.8-7.4-20.3-14.3-44.7-12.5-44.7.4 0 6.4 3.4 13.5 7.5zm185-6.2c0 2.6-6.9 26.3-11.1 38.2-9.4 26.9-33 79.2-39.7 88-4.4 5.9-10.6 9.2-18.4 10.1-4.5.5-5.9.4-6.3-.8-.7-1.8 44.9-117.6 47.2-120 1.9-1.9 26.3-16.8 27.6-16.8.4 0 .7.6.7 1.3zm-142.9 22.7c15.7 7.9 26.5 11.2 39 11.8 16.6.8 29.2-2.2 49.8-11.9 5.7-2.7 10.6-4.8 10.8-4.6.2.2-2.1 5.501-5.1 11.8-7.9 16.6-39.6 102.1-41.1 110.9-1.2 7.3 2.4 12 9.2 12 4.4 0 25.6-5.1 29.5-7.1 3.7-1.9 11-10.1 13.1-14.7.6-1.2 1.3-2.2 1.7-2.2.9 0 8.5 19.9 7.9 20.5-.3.2-5.5 2.2-11.7 4.3-22.6 8-36.4 18.8-44.2 34.4-7 14.3-7.3 17.4-6.5 71.8.8 59 1.9 86.6 4 94.5 3.5 13.7 6.2 17.3 29.9 41 29.9 29.8 34.5 32.2 63.9 33.2 8.6.3 15.7.601 15.7.7 0 0-1.6 4.6-3.6 10.1-7 19.7-11.9 42.2-15 70-2.5 22.098-3 85.898-1 116.998 1.1 16.6 1.8 44.7 2.1 84 .2 32.4.8 63.4 1.3 68.8.9 9 1.5 10.8 7.5 23.5 3.6 7.5 7.6 16.2 9 19.3 5 11.4 12.4 16.8 23.2 16.9 8.3 0 15.5-3.6 29.1-14.5 14.8-11.9 14.2-11.5 12.3-8.5-.8 1.4-9.1 15.5-18.4 31.5-47.2 81.4-57.8 97.3-90.3 136.1-25.2 30.1-29.8 35-43 45.5-7 5.6-13.3 10.8-13.9 11.7-.8.9-1.3 4.4-1.3 8 0 3.5-.3 6.2-.7 6-14.6-7.5-26.9-7-38.8 1.7-2 1.4-2 1.3-1.7-6.3.2-5.3-.1-8.2-1-9.3-.7-.9-7-6.2-14-11.8-13.2-10.5-17.9-15.5-42.7-45.1-32.6-38.9-42.5-53.9-90.6-136.5-18.3-31.5-19.7-33.9-18.3-32.8.7.5 6.2 4.9 12.2 9.8 13.6 10.9 20.8 14.5 29.1 14.5 11-.1 18.1-5.4 23.8-18 1.6-3.6 5.6-12.2 8.9-19.2 5.2-11 6.1-13.9 6.9-21.5.5-4.8 1.2-35.8 1.4-68.8.3-39.8 1-68.2 2.1-84.4 1.3-18.9 1.5-33.4 1.1-64-.6-47.4-2.3-65.797-8.3-92.998-2.1-9.099-9.5-34-12-39.7-.3-.8 4.2-1.3 15.3-1.7 29.5-1 34-3.4 63.9-33.2 23.8-23.7 26.3-27.2 29.9-41 2.1-8 3.3-35 4.1-94.5.7-55.2.5-57.2-6.6-71.8-7.8-15.6-21.6-26.4-44.2-34.4-6.2-2.1-11.4-4.1-11.7-4.3-.5-.6 7.1-20.5 7.9-20.5.3 0 1.4 1.5 2.4 3.2 3.5 6 8.7 11.8 12.4 13.7 4 2 25.2 7.1 29.6 7.1 7 0 10.6-5 9.2-12.6-.8-3.9-13.3-39-26.6-74.4-5-13.5-10.3-28.1-11.7-32.5-1.4-4.4-3.4-9.7-4.4-11.8-1.1-2-1.7-3.7-1.4-3.7.3 0 5.1 2.3 10.6 5zm-48.8 38c2.1 5.8 3.6 11.3 3.3 12.5-.3 1.1-5.1 7.7-10.8 14.5-5.6 6.9-16.4 20.4-24 30-20.7 26-22.3 27.8-26.9 29.2-5.5 1.6-13.1 0-22.9-5-10.4-5.3-24.1-14.2-23.5-15.2.3-.5 7-4.8 14.8-9.6 39.2-23.9 46-31 68.7-70.8l8.5-14.9 4.5 9.5c2.5 5.2 6.2 14.1 8.3 19.8zm208.7-9.5c19.4 33.5 27.6 42.4 55.6 59.6 5.7 3.5 14 8.7 18.4 11.4l8 5.1-12.8 7.7c-20.5 12.4-31.5 15.201-39.1 9.8-1.7-1.299-7.7-8.2-13.4-15.4-5.6-7.2-17.6-22.1-26.6-33.2-9-11-16.8-21-17.4-22.2-1.2-2.6 3.4-16.1 11.1-32.6 3.9-8.5 4.7-9.5 5.7-8 .7 1 5.4 9 10.5 17.8zm-189.3 54.5c2 5.1 2.3 7.5 1.8 11.3-.6 4.9-4.7 16.3-8.5 23.8-3.4 6.5-5.3 7-27 6.7l-18.9-.3 42.4-64.4 3.8 8.2c2.2 4.5 5 11.1 6.4 14.7zm179.2 41.8c-24.1.3-23.7.501-29.5-12.9-2.3-5.099-4.7-11.9-5.4-15-1.5-6.9-.6-10.4 6.6-26.1l4.9-10.7 42.6 64.4-19.2.3zm-353.9-13.5c-.8.8-7 6.1-13.6 12-23.6 20.7-29 28.701-45.5 67.3-15.1 35.5-20.3 55.701-27.9 109.8-2.6 18.401-5.5 32.1-10.8 51.1-.5 1.6-1.5 3-2.3 3-1.1 0-1.5-3.2-2-16.5-.4-9.1-1.7-27.3-2.9-40.5-2.9-31-2.5-50.3 1.4-68.2 6.1-28.2 21.4-65.7 32.9-80.8 12.8-16.7 32.9-28.8 60.1-36 10.9-2.9 12.7-3.1 10.6-1.2zm505.6 1.3c35.4 9.1 56.9 25.3 70.3 52.9 7.3 14.9 15.7 37.001 19.6 51.1 7.1 26 8.1 43.9 4.5 81.4-1.2 12.4-2.5 30.1-2.8 39.5-.6 13.8-1 17-2.1 17-2.5 0-9.7-30-13.2-55-7.2-52-12.5-72.9-27.1-107.5-12.2-28.6-20.3-43.2-29.6-53.2-2.6-2.8-10.1-9.8-16.7-15.6-15.8-13.9-15.1-13.2-13.8-13.2.6 0 5.5 1.2 10.9 2.6zm-468.1 3.9c2.2 1.3 5.5 3.2 7.3 4.1 1.7 1 3.2 2.2 3.2 2.7s-5 12.001-11.2 25.6c-15.1 33.401-20.2 45.4-22.7 53.4-4 13.2-7.6 20.5-20.9 42.7-27.6 46.2-44.6 66.9-69.1 84l-3.4 2.3.7-9.9c2.8-38.099 10.5-77 21.2-106.9 5.3-14.7 16.5-37.5 24.1-48.8 16.4-24.7 49.4-51.399 63.8-51.6 1.7 0 4.8 1 7 2.4zm433.5-1c10.6 3.7 26.717 15.78 40.8 29.5 32.753 31.908 39.266 61.16 51.2 105.3 7.975 29.499 11.8 68.6 10.8 77.5l-.3 3.1-7.5-5.6c-16.6-12.5-35.7-34.4-51.1-58.8-8.8-14-24.2-40-27.1-46-1.4-2.8-3.8-8.8-5.3-13.5-4.3-13.3-7.7-21.4-22.1-53.1-7.4-16.3-13.4-30.1-13.4-30.6s1.5-1.7 3.3-2.7c1.7-.9 4.161-2.99 7.2-4.1 4.966-1.812 7.6-3.1 13.5-1zm-409.6 11.5c14.2 6 32.8 9.3 69 12 40.4 3 50.7 4.9 63.5 11.1 14.9 7.401 26.6 21.3 30.8 37 1.5 5.701 1.7 12.7 1.7 65.4.1 61.3-.1 64.301-4.3 75.6-3.3 8.8-6.8 13.1-26.8 33.5-21.1 21.5-24 23.5-40.9 27.5-7.7 1.8-12 2.1-32.4 2.1-21.2 0-24.2-.199-30.1-2.1-12.3-3.9-21.9-11.8-33.1-27.1-13.2-18-22.1-23.5-68.2-41.7-13.2-5.2-24.4-9.7-24.9-10-.5-.3.9-2.4 3.1-4.7 12.3-12.9 26.3-34.1 37.7-57.1 8.7-17.8 16.1-35.8 29-71 10.1-27.5 20.1-52.5 20.9-52.5.3 0 2.5.9 5 2zm381.9 8.1s10.532 28.38 17.7 46.4c12.54 31.524 16.868 50.677 34.1 79.9 10.721 18.181 21.3 33.901 31.1 44.2 2.2 2.3 3.6 4.4 3.1 4.7-.4.3-11.7 4.8-25 10.1-47 18.6-55.4 23.8-69.4 43.2-6.9 9.6-16.2 18.5-22.8 21.8-10.3 5.3-14.8 5.9-39.6 5.9-19.8-.1-24.2-.4-31.9-2.2-16.8-4-19.9-6.099-40.4-27-28.3-28.7-29.8-31.7-31.4-63.6-1.4-28.5-.3-104.3 1.7-111.5 4.9-18.3 21.1-34.999 39.5-40.9 7.5-2.299 27.5-5 49-6.6 38.3-2.7 74-12.4 74-12.4s4.9-1.799 5.5-1.7c.5.1 4.8 9.7 4.8 9.7zm-478.1 185.5c.7.701-2.5 10.4-17.5 51.9-39.9 110.7-49.3 135.698-56.7 150.498-5.9 11.7-15.5 26.9-20.6 32.7-3.1 3.4-23.4 20.3-24.5 20.3-.4 0-1.2-6-1.8-13.3-.6-7.2-1.4-14.8-1.6-16.8-1.5-11.3 3.7-40.3 12.1-68.398 3.1-10.5 8.1-27.3 11.1-37.5 8.7-29.8 18.3-46.5 40.9-71 22-23.9 43-45.3 45.3-46.2 1.4-.5 4.6-1.3 7.1-1.8 2.5-.4 4.8-.8 5.1-.9.3 0 .8.201 1.1.5zm575.4 1.5c5 1.3 8.3 4.4 32.6 30.4 39 41.8 45.8 52.3 55.8 86.5 2.8 9.6 7.1 24 9.6 31.9 12.7 40.998 15.7 63.298 12.4 92.798-.7 6.8-1.5 12.3-1.8 12.3-.9 0-19.4-15.2-23.4-19.2-8.4-8.4-22.5-33-30.3-52.8-5.9-14.998-21.7-58.098-42-114.498-22.1-61.4-24.5-68.199-23.8-68.9.6-.599 4.8 0 10.9 1.5zm-558.3 6.2c15.7 7.4 17.4 13.8 7.4 29.2-3.9 6-6.7 12.2-10 21.7-47.7 139.398-58.4 169.698-66.2 186.398-7.9 17.1-24.7 36.9-35.2 41.6-5.3 2.3-5.8 1.9-6.9-5.1-1.9-12.2.8-19.6 15.7-44.2 24.5-40.5 46.9-99.298 76.4-200.898 10.1-34.9 9.2-32 10.5-32 .6 0 4.4 1.5 8.3 3.3zm544.3 11.7c2.3 8 7.7 26.2 11.9 40.5 8 27 15.2 49 26.2 80.5 14.9 42.698 27.9 71.698 43.8 97.898 11.3 18.6 14.6 25.7 15.2 33 .6 6.2-.2 13.7-1.6 16-2.7 4.2-22-11.9-31.7-26.5-10.7-16.1-16.1-30.2-56.8-148.898-8.5-24.8-17.1-49.9-19.2-55.8-2.4-7-5.6-13.9-9.2-19.4-7.3-11.2-8-16.2-3.1-21.8 3.4-3.8 16-10.7 18.8-10.2.8.1 3 5.7 5.7 14.7zm-514.8 9.5c7.6 3.5 28.6 18.1 34.7 24 6.3 6.1 8.8 12.2 12.1 29.5 1.3 6.9 3.5 17.6 4.9 23.9 1.4 6.2 2.4 11.5 2.2 11.7-.2.201-3.3-3.5-7-8.3-3.6-4.9-12-14.7-18.7-21.8-21.3-22.8-30.5-36.8-34.9-53.2-2.6-9.5-2.1-9.9 6.7-5.8zm479.4-1.9c1.1 1.1-3.2 14.8-7.2 23-4.9 10-12.2 19.6-28.5 37.5-11.3 12.3-16.5 18.401-24.2 28.5-2.3 2.901-2.3 2.9-1.8.4.2-1.4 1.3-6.7 2.5-11.8 1.1-5.1 3-14.3 4.1-20.5 2.4-13.4 5-22 8.4-26.9 3.9-5.7 27.9-23.3 38.8-28.4 5.4-2.5 6.9-2.8 7.9-1.8zm-441.5 93.5c6.1 7.901 11.5 15.3 12 16.4.6 1.1 1.8 5.4 2.6 9.5.9 4.1 5.2 18.6 9.6 32.098 4.5 13.6 8.1 25.2 8.1 25.9 0 2.1-2.8-.8-7.3-7.5-2.3-3.3-14.7-20.2-27.7-37.498-24.1-32.2-27.7-38.1-30.4-50.1-1.5-6.5-3.6-25.099-3.6-32.3 0-3.799.1-3.7 12.9 12.6 7 9 17.8 22.9 23.8 30.9zm431.3-29.3c-1.2 13.6-3.6 24.3-7.1 31.8-1.3 2.701-12.3 18.2-24.4 34.4-12.2 16.198-24.7 33.198-27.8 37.598-5.8 8.3-8.7 11.5-8.7 9.6 0-.6 3.8-12.8 8.5-27.2 4.7-14.398 9-29.098 9.6-32.598 1.3-7.7 2.9-10 31.4-46.6 21.6-27.8 20.4-27.3 18.5-7zm-372.7-5.3c2.2.4 5.2 2.1 7.1 3.9 3 2.901 3.5 4.1 6.1 17.6 9.6 50.4 9.9 55.7 9.2 182.498-.7 124.1-1.8 149.9-7.2 157.2-1 1.4-1.5.4-3-6.3-8.3-37.8-27.8-79.7-59.9-128.5-5.9-8.9-13.3-19.6-16.5-23.8-11.9-15.7-10.9-12.4-14.1-44.2-1.6-15.6-3.2-29.9-3.4-31.8-.5-3-.3-3.3.9-2 .8.8 3.7 5.7 6.5 10.9 9.9 18.1 20.8 31.3 38.5 46.1 4.9 4.1 12.7 11.8 17.1 16.9 6.1 7 9.5 10.1 13.1 11.7l4.8 2.3.3-4.3c.2-3.5-.9-6.8-6.1-18.2-3.5-7.7-7.7-17.4-9.1-21.5-2.7-7.3-7.8-27.1-7.3-27.7.2-.1 4 1 8.5 2.4 4.5 1.5 8.4 2.4 8.8 2.1.3-.4.7-4.2.8-8.6l.1-7.9-9.7-19.5c-8.4-16.7-14.8-31.898-14.8-35.098 0-.5 2.2-.7 5.4-.3l5.4.7.7-5.3c.8-6.3-.1-9.2-14.1-48.7-5.2-14.5-9.4-26.7-9.4-27.1 0-.6 23.7 3.1 41.3 6.5zm309.7 22.4c-13.8 39.2-14.2 40.5-13.4 46.9l.6 5.3 5.4-.7c4.6-.5 5.4-.4 5.4 1 0 3.2-6.8 19.198-14.8 34.798-4.4 8.6-8.5 17.4-9.1 19.5-1.3 4.6-.3 16.3 1.3 16.3.7 0 4.5-1.1 8.6-2.4 4.1-1.4 7.5-2.4 7.7-2.3.1.1-.5 3.3-1.3 7.2-2.3 10.8-7.6 25.7-14.8 41.5-5.5 11.8-6.6 15.3-6.4 18.7l.3 4.3 5.1-2.4c3.8-1.8 6.9-4.5 12.1-10.7 7.3-8.7 10.7-12 23.5-22.8 12.9-10.8 23.5-24.2 32.8-41.1 2.9-5.2 5.8-10.2 6.6-11 1.3-1.3 1.4-1.1.9 1.5-.2 1.7-1.6 14.9-3 29.5s-3 28.1-3.5 30c-.6 1.9-3.7 7.1-6.9 11.5-3.3 4.4-11.6 16.3-18.4 26.5-34.8 51.7-50.5 85.4-63.6 136.5l-.7 3-2.3-5c-2.8-6.1-3.5-16-5.1-70-1.2-45.5-1.3-174.5 0-202.998.9-21.3 2.6-33.199 8.8-64.4 3.7-18.5 4-18.799 21-22 18.5-3.5 32.7-5.7 33-5 .1.3-4.3 13.3-9.8 28.8zm-386.5 49.4c4.9 7 16.3 22.098 25.4 33.498l16.5 20.7 3.8 22c2.1 12.1 3.7 22.4 3.5 22.9-.5 1.6-27.1-25.9-34.5-35.6-15.9-20.8-22.9-37.6-25.3-60.498-1.1-9.9-.6-18.499 1-16.7.5.5 4.8 6.7 9.6 13.7zm443.1-1.4c-1.3 18.398-5.6 32.698-14.5 48.198-7.9 13.9-23.9 33.1-38.4 46.2l-7.9 7.1.7-4.4c.4-2.5 2.2-12.9 4-23.2l3.3-18.7 12.4-15.3c13.8-17 24.3-30.898 33.2-44.098 7.3-10.6 8.2-10.1 7.2 4.2zm-640.5 93.998l8.3 25 4.9-.6 4.8-.6-7.5 12.9c-7.8 13.5-13 21.1-36.3 53.5-28.1 39-37.3 56.6-58.1 111.4-9.1 24-9.5 25.3-11.7 39.4-1.3 7.9-1.4 10.6-.5 11.5 2.5 2.4 6.6-5.5 18.7-36.1 6.8-16.9 13.9-35.3 15.9-40.8 8.5-23.5 24-49.6 45.2-76.3 14.2-17.8 17-21.7 29.7-40.1l10-14.4.8 3.9c1.4 6.3.2 25.1-2.1 31.4-3 8.7-24.6 58-32.6 74.5-8.7 18-14.4 27.5-37.9 63.4-18.4 28.1-20 31.6-16.8 35.5 1.1 1.3 1.7 1.4 4 .2 4-2.1 9.6-7.9 12.6-13.3 1.5-2.6 9.3-16.5 17.2-30.8 23.9-42.8 47.9-84.2 73.8-127.3 13.4-22.4 24.9-41.4 25.5-42.2 5.1-6.8-12.2 37.5-22.9 59-6.5 13-23.3 43.1-56.6 101.5-23.9 41.8-39.8 72.1-45.4 86.5-3.7 9.2-4.2 14.8-2.7 29 .8 7.1.6 8.1-3.2 20-2.3 6.9-8.2 26.9-13.2 44.5-8.4 29.4-9.2 33.1-10.1 45-1.9 27.2-5 42.3-14 68.9-7.8 23.1-9.6 26.6-13.9 26.6-2.5 0-4.9-2.6-4.5-4.7.2-1 1.3-6.8 2.4-12.8 1.1-6.1 4.5-23.7 7.5-39.2 3.1-15.4 6.5-34.3 7.6-42 2.5-16.1 4-54.6 2.2-55.7-.6-.3-1.3.2-1.6 1.1-2.1 7.3-3.4 14.6-7.6 42.6-2.6 17.6-5.2 32.3-5.6 32.7-.5.5-5.2 2.3-10.4 4.1-11.2 3.7-16.7 3.6-25.1-.6-11.5-5.8-31.6-23.1-40.5-34.8-5.3-7-11.4-19-11.4-22.4 0-2.8 6.2-9.9 9.3-10.7 1.3-.3 9.7-1.2 18.8-2.1 9.1-.8 19-2.2 22-3.2 10.5-3.4 14.9-10.5 19.1-31.3 1.9-9 2-11.2 1-12.2-1.9-1.8-3.5.7-6.7 10.3-3.1 9.3-9.1 16.7-16.6 20.4-10.9 5.6-28 8.5-49.9 8.5-15.4 0-23.9 1.8-34.8 7-9.4 4.5-10.4 4.6-15.6 2.5-3.9-1.6-3.9-1.8-1.5-8.1.5-1.5 4.7-3.9 13.6-7.9 15.2-6.8 23.4-11.3 51.1-28.2 11.4-6.9 26.8-16.2 34.1-20.7l13.5-8.1h10c17.1.1 18.9 1 36.8 18.3 14.2 13.7 25.3 23 26.3 22 .2-.2-.2-2.8-.9-5.8-5.1-21.6-26.6-38.4-51.8-40.6-4.3-.4-7.7-.9-7.5-1.3 4.4-8.1 15.8-33.1 20-44.1 7.2-18.9 10.9-30.4 22.7-71.5 33.7-116.7 35-120.9 44.6-144.5 7.1-17.4 14.8-32.1 25.8-49.3 4.8-7.5 8.9-13.7 9.1-13.7.2 0 4.1 11.2 8.6 24.9zm845.4-9.9c13.8 21.4 25.2 46.1 35.1 75.5 4 12.1 8 25.7 34.4 117.2 15.7 54.4 26.5 84.3 38.6 107.2 2.4 4.6 4.4 8.4 4.4 8.6 0 .1-3.5.5-7.8.9-20.9 1.8-40.5 14.4-48.2 30.9-2.7 5.7-5.4 15.7-4.3 15.7 1.7 0 12.9-9.6 26.1-22.2 13.2-12.8 15.9-14.9 20.5-16.3 7.7-2.4 21.3-3 26.2-1.3 2.2.8 17.4 9.6 33.7 19.6 40.2 24.5 48.2 29.1 64.2 36.3 13.7 6.2 14.7 7 16 12.1.6 2.5.2 2.9-3 4.3-5.2 2.1-6.2 2-15.6-2.5-10.8-5.2-19.5-7-34.3-7-40.2-.1-60.6-8.6-66.4-27.6-2.4-7.5-4.8-12.4-6.1-12.4-2 0-2 4.9 0 14.4 6.1 27.8 10 30.7 45.5 33.6 11.4.9 14.6 1.5 17.2 3.3 3.5 2.3 6.3 6.5 6.3 9.4 0 2.8-5.6 14-10.5 20.8-8.3 11.6-28.9 29.7-40.9 35.7-8.9 4.5-14.2 4.7-25.6.9-5.2-1.8-9.9-3.6-10.3-4.1-.5-.4-3.1-15.5-5.8-33.5-5-33.7-7.2-44-9.1-42.9-1.5 1-.3 39.3 1.6 51.9 2.2 13.9 6.6 38.1 13 70.9 3 15.3 5.2 28.4 4.9 29.2-.3.8-1.7 1.7-3.1 2.1-4.4 1.1-7.2-3.4-14-23.2-9.7-28.2-13.3-45.5-15.1-72-.8-12.1-1.6-15.3-10-45-5.1-17.6-11-37.6-13.2-44.5-3.9-11.8-4.1-12.9-3.3-19.5.4-3.9.8-10.2.7-14 0-8.2-2.7-15.8-13.9-38.5-6.8-14-11.9-23.1-58.4-105-11.7-20.6-25.7-46.1-30.9-56.5-9.8-19.3-24.6-54.1-25.7-60.5l-.6-3.5 2.2 3c6.3 8.8 62 103.4 84.5 143.5 35.5 63.4 36.3 64.7 43.6 68.5 2.4 1.3 2.9 1.2 4-.1 2.5-3.1 1.5-7.7-3.3-15-43.8-66.6-46.7-71.7-64.1-112-5.2-12-12-27.5-15-34.4-3.3-7.4-6-15.2-6.6-19-1.2-7.3-1.3-18.5-.3-24.4l.7-3.9 13.2 18.9c7.3 10.4 18.4 25.4 24.8 33.4 25.1 31.2 37.6 53.1 51.3 90 16.3 43.5 26.3 66 29.2 66 2.1 0 2.1-3.1.1-15-1.6-9.4-3.7-16.5-9.5-31.8-23.8-63.3-30.5-75.8-67.8-127.4-17.3-23.9-19.9-27.8-29.3-44l-6.5-11.1 9.6 1.2 8.3-25.1c4.6-13.7 8.7-24.6 9.1-24.1.5.4 4.7 6.9 9.5 14.3zm-635 68c33.1 53.1 57 104.7 66.6 143.9 3.5 14.2 1.1 26.6-5.7 29.1-4.9 1.9-13.1-3.2-41.2-25.8-36.1-28.9-42.5-41.1-34.4-64.9 6.4-18.9 6.9-25.2 4.6-57.9-.8-10.4.4-39 1.6-37.7.4.4 4.2 6.4 8.5 13.3zm416 19.5c-.3 8.2-.8 19.7-1.1 25.5-.7 12.4.9 22.6 5.8 37.1 6.2 18.1 3.9 28.4-9.7 43-12.3 13.3-50.4 43.5-60 47.5-11.4 4.7-16.5-12.5-10.2-34.1 12.6-43.3 32.3-85.1 65.3-138.4l8.9-14.5.8 9.5c.4 5.2.5 16.1.2 24.4zm-429.9 126.7c9.1 13.7 14.2 29.5 16.9 52.3 3.8 32.7.8 51.7-13.9 86.3-10.4 24.6-35.1 96.8-40.1 117-1.5 6.3-3 10.9-3.4 10.4-.3-.6-.5-12.6-.5-26.9.2-27 .5-30.7 6.4-66.3 3.7-22.1 4.8-30.2 11.5-85.5 3-24.8 6.2-49.1 7-54 1.9-10.9 7.4-39.5 8.1-41.4.7-2 2.6 0 8 8.1zm446.2 13.8c5 25.9 5.7 30.9 12.7 89 3 25 7.5 57.9 10 73 2.4 15.1 4.9 32.2 5.4 38 .9 11.3.9 51.5 0 52.5-.4.3-2.1-5.1-3.8-12.1-4.2-16.7-27.4-85-36.2-106.7-16.5-40.5-18.3-47.7-18.3-74.2 0-33.9 6.5-58.3 20.7-77.3 2.1-3 4.3-5 4.7-4.5.4.4 2.6 10.5 4.8 22.3zm-413.8 28.4c6.5 14.6 8.1 20.5 9.6 36.5 5.8 61.6 15.8 118.1 29.9 169.4 5.5 20.1 10.3 35.3 26.7 83.7 18.1 53.3 24 78.6 27.8 119.4 2.3 23.8 2.4 26.4 1.1 25.1-.5-.6-10.1-25.8-21.4-56-11.3-30.3-24.4-64.6-29.1-76.3-11.7-28.9-14.5-37.7-22.6-70.5-15.5-62.9-19.4-90.3-20.5-145.2-.6-31.4-2.1-60.7-3.9-79.8-.6-7-1-12.7-.8-12.7.1 0 1.6 2.9 3.2 6.4zm371.4 6.3c-1.8 19.4-3.3 50.7-3.9 81.8-.9 42.7-3 62.2-10.5 99.6-4.4 21.8-15.4 66.9-19.6 79.9-1.4 4.7-6.4 17.9-11.1 29.5-4.7 11.5-18.2 46.9-30 78.5s-21.9 57.9-22.4 58.5c-1.2 1.2-1.2.2.6-20 4.3-48.4 11.7-79 35.6-146.3 25.6-72.1 41.6-146.9 49.3-230.8 1.2-12.8 2.1-17.7 4.5-24 3.1-8.6 7.8-19.4 8.3-19.4.2 0-.2 5.7-.8 12.7zm-342.6 48.2c4.7 8.8 6.5 16.3 6.5 27.6 0 14.7-.8 60.4-1 60.1-.6-.6-2.6-13-7.9-48.3-3-20.6-6.1-40.8-6.8-45l-1.3-7.4 3.8 3.7c2.1 2 5.1 6.2 6.7 9.3zm321.7-11.7c-.2.7-3.6 22.7-7.5 48.8-3.9 26.1-7.4 48.4-7.9 49.5-.5 1.1-.8-5.7-.7-16 .1-9.9-.1-25.9-.4-35.5-.4-15-.2-18.3 1.4-23.5 2.5-8.3 5.7-14.2 10.6-19.8 4.3-4.9 5.3-5.6 4.5-3.5zm37.6 60.2c3.9 17.9 5.5 29.6 7.4 55.1.9 11.5 2.7 32.9 4 47.5 4.2 46 4.8 59.5 4.2 93-.9 44.8-2.3 58.6-11.8 111-3.3 18.4-11.2 64-17.4 101.4-6.3 37.3-11.6 68-11.8 68.3-.9.8-13.1-19.3-18.3-30-6.2-13.1-13.3-33.9-16.3-48.2-1.1-5.5-5.9-32.7-10.7-60.5-6.7-39.5-8.5-51.8-8.1-56.5.7-8.5 7.7-29.1 16.4-49 15.8-35.8 26.6-67 35.7-103.5 9.9-39.3 14.9-68.3 20.2-117.7 1.5-13.9 2.9-25.1 3.1-24.9.2.2 1.7 6.5 3.4 14zm-401.1 7.1c5.3 48.5 9.3 73.3 17.2 107.5 9.9 42.9 21.8 78.9 38.4 115.7 8.6 19.2 17.6 46 17.6 52.8 0 7.3-18.7 114.1-22.2 126.8-4.2 15-9.3 28.3-15.6 40.7-5.9 11.5-15.2 26.5-16 25.7-.3-.2-5.8-32.3-12.4-71.3-6.5-39-14.1-83.3-16.9-98.4-9.1-50-10.9-67.1-11.8-110.5-.6-33 0-46.3 4.2-92.5 1.3-14.6 2.9-33 3.5-41 2.5-35.3 4.6-49.9 10.6-74 .9-3.6 1.1-2.6 3.4 18.5zm70.4-3.5c4.2 6.6 7.6 12.6 7.6 13.4 0 .8-3.9 10.6-8.6 21.8-4.8 11.1-9 21.4-9.5 22.7-.5 1.3-1.2 2.2-1.4 1.9-.3-.3 2.9-66 3.5-71.6.1-1 1.8 1.3 8.4 11.8zm264.7 24.1c1 19.4 1.7 35.4 1.5 35.6-.5.5-18.2-41.1-19.1-44.9-.6-2.3.6-4.7 7.1-14.7 4.3-6.6 8-11.8 8.2-11.6.2.2 1.2 16.2 2.3 35.6zm-232.3 16.8c3.9 4.5 7.2 8.8 7.2 9.6 0 .9-5.2 12.5-11.6 25.8-6.4 13.3-14.1 29.6-17.2 36.1l-5.6 11.9-2.3-4.9c-6.2-13.9-7-35.1-1.9-53.1 2.4-8.4 9.7-28.7 14-38.8l1.7-4 4.2 4.7c2.3 2.5 7.5 8.3 11.5 12.7zm212.5 1.4c10.4 27.8 13.3 42.2 11.6 57-1.3 11.4-6 25.1-7.9 23.1-.5-.5-8.3-16.6-17.5-35.9-13.5-28.2-16.6-35.4-15.9-37.2.9-2.1 21.4-25.3 22.4-25.3.3 0 3.6 8.2 7.3 18.3zm-734.1 8.4c4.9 11.1 6.3 7.8-18.4 42.4-12.2 17.1-23.2 31.7-24.3 32.5-2.8 1.8-7.7 2.7-9.3 1.6-4-2.7 36.5-74.6 45.1-80.1 1.7-1.1 3.5-2.1 3.8-2.1.4 0 1.8 2.6 3.1 5.7zm1239.4-3.6c5.6 3.4 30.8 44.6 40.6 66.2 4.6 10.1 5.6 13.2 4.6 13.9-1.6 1.1-6.5.2-9.3-1.6-1.1-.7-12-15.4-24.3-32.5l-22.3-31.2 1.2-3.7c1.7-5.3 5.1-13.2 5.7-13.2.2 0 2 .9 3.8 2.1zm-675.4 39.7c3.3 4.1 3.3 3.2.8 21.8-4.4 33.2-10.8 64-19.6 94.4-4.8 16.9-14.1 45.4-14.3 43.9-.5-4.3-4.3-20.2-8.6-35.9-5-18.5-6.3-22.6-13.9-43-2.8-7.8-3.1-9.5-3-20.5 0-10.8.4-13 3.3-22 2.9-8.6 25.3-65.3 26.8-67.8.5-.9 22.8 21.9 28.5 29.1zm142.4-6.8c19.5 48.3 22.1 57 21.1 71.4-.5 8.3-1.4 11.5-8.7 31.5-3.9 10.8-13.4 45.5-16.1 58.6l-1.2 6-5.8-17.6c-10.6-31.9-18.4-62.9-23.8-94.9-4.5-26.6-6.5-43.5-5.3-45.7 1.9-3.4 29.7-32.2 30.4-31.5.4.4 4.6 10.4 9.4 22.2zm-316.2 0c-3.7 31-4.5 39.2-5.5 61.3-2.2 45.4.9 89.9 11.6 167.5 12.3 88.8 14.7 121.3 11 149.9-2.9 22.6-9.4 56.9-13 68.8-8.2 26.9-10.5 31.9-13.5 28.9-1.3-1.3-14.8-80.6-19-111.4-6.9-51.6-11.2-94.6-13.1-130.7-1.6-31.8.2-65.3 6.2-113.3 3.8-30.6 8.1-50.7 16.5-77.6 5.5-17.8 19.2-55.9 19.9-55.2.1.2-.4 5.5-1.1 11.8zm458.4 6.5c12.3 33.1 21 63.1 25.1 86.6 4.9 28.2 9.5 73.4 10.7 104.9 1.2 32.9-3.3 89.1-13.2 164-3.7 28.3-18.1 113.1-19.4 114.4-2.2 2.2-4.5-1.2-8.3-12.5-6.8-20.5-9.6-32.1-13.6-55.9-5.7-33.5-6.5-42.3-5.8-65 .8-27 3.3-49.7 12.7-117.7 12.6-90.7 14.8-146.8 7.9-205.8-2.6-22.9-3.3-30.1-2.6-29.5.3.3 3.2 7.7 6.5 16.5zm-822.4.6c3.8 4.5 3.4 8.2-2.5 20.6-2.8 5.9-11.4 24.2-19 40.7-13.7 29.4-18.1 37.2-22.8 39.8-2.1 1.1-2.6 1-4.7-1.5-1.3-1.6-2.4-3.4-2.4-4.2 0-2 6.1-18.6 9.8-26.8 7.9-17.3 36.5-71.7 37.7-71.7.7 0 2.5 1.4 3.9 3.1zm1205.5 36.4c11.9 23.5 21 43 23.1 49.1 3.3 9.9 3.4 10.2 1.6 12.8-2.7 4.1-4.3 4.2-8.2.5-4.8-4.7-6.6-7.9-20.2-37.4-6.6-14.3-14.7-31.8-18.1-38.9-3.7-7.7-6.1-14.1-6.1-16.1 0-3.8 4.4-9.8 6.8-9.3.9.2 9.7 16.7 21.1 39.3zm-575.9-11.5c5.3 65 15.8 108 35.6 146.6l5.4 10.4-3.5 24.2c-1.9 13.3-3.7 24.3-3.9 24.5-1.1 1.2-11.8-30.6-14.7-43.9-3.7-17.1-26.9-162.6-26.9-169.1 0-3 4.7-8.4 6.1-7 .4.5 1.2 6.9 1.9 14.3zm-73.2-12.4c1.5 1 2.2 2.5 2.2 4.8 0 7.9-24.5 161.1-28 174.5-3.9 15.3-13.8 42.3-14 38.1 0-.8-1.6-12-3.4-24.8l-3.4-23.3 5.8-11.4c20-39 30.2-82.4 35.6-150.8.7-9.2 1.2-9.9 5.2-7.1zm-512.1 5.8c.2.2-1.2 3.7-3.3 7.7-2 4.1-7.3 16.6-11.6 27.9-10.7 27.6-18.9 43.7-23.2 45.3-3.2 1.3-4.3-1.6-3.5-9.6 1.1-11 4.1-21.6 12.9-45.2 4.3-11.6 8.1-22.5 8.5-24.4l.7-3.4 9.6.6c5.2.4 9.7.9 9.9 1.1zm1112.4 3.3c.7 2.7 4.6 13.7 8.7 24.7 8.1 21.8 10.7 30.9 12.1 42.3 1 8.2.8 9.8-1.6 10.7-4 1.6-14.1-16.4-24.1-42.9-7.4-19.5-8.5-22.2-12.8-30.8-1.9-3.7-3.4-7-3.4-7.2 0-.5 6.2-1.1 13.6-1.3l6.1-.2 1.4 4.7zm-674.7 211.1c9.6 27.9 13.8 55.7 15.2 99.2 1.4 44.4-3.9 92.9-15.2 137.9-4.9 19.4-7.8 25.6-15.4 32.3-8.1 7.2-21.6 13.5-22.4 10.5-.6-1.9-3.6-44-4.6-62.2-.9-18.3.1-39.2 2.6-54.2.9-5.4 4.2-21.8 7.5-36.4 9.6-43.6 21-108.3 22.9-129.9.7-6.9 1.4-13.2 1.7-14 .7-2.2 2.5 1.7 7.7 16.8zm225.5-3.7c2 22.2 13.6 88 22.6 128.4 3 13.2 6.3 29.4 7.5 36 2.6 15.2 4.2 38.2 3.5 50.5-1 17.4-4.7 67.5-5.1 68.7-.2 1-1.3.9-4.8-.1-9.9-3-20.5-11.5-25.9-20.7-4.3-7.3-12.9-43.7-17.2-72.6-7.4-50.3-6.8-111.5 1.6-155 3.1-16.4 13.7-49.3 15.8-49.3.4 0 1.3 6.4 2 14.1zm-307.5 158.7c1.9 8.9 5.3 15.6 8.3 16 2.6.4 6.5-1.5 12.8-6.4l4.8-3.6-.6 3.2c-.4 1.7-1 12-1.3 22.8-.6 16.8-.3 22.6 1.6 39.2 1.9 16.5 2.2 22.6 1.7 40-.9 31.5-5.1 46.9-18.3 67.7-6 9.2-7.7 15.3-8.1 28.3-.4 9.9-.1 12 1.5 14.9 1 1.9 2.3 3.6 2.8 3.8.5.2 9.4-18.8 19.8-42.2 10.5-23.4 19.4-42.9 20-43.5.5-.5 2.2-1 3.7-1h2.7l-3 11.2c-9.2 34.7-19.6 59.1-31.2 73.3-3.6 4.4-9.5 11.6-13.1 16-8.7 10.5-12.6 16.5-12.1 18.4.2.9.7 2.7 1 4.2.5 2.2 1 2.5 4 2.1 4.2-.5 4.5-.9 17.9-19.3 18.6-25.7 27.9-41.1 33.2-55.2 1.4-3.7 5.2-16.7 8.4-28.8 4-14.8 6.8-23.4 8.6-26.2 4.6-7 10.7-14.7 11.7-14.7 1.3 0 .2 7.3-3.4 22-6 24.9-14.9 45.6-32.2 74.5-21 35.2-29.7 57.8-39.6 103.2-2.2 10.3-7 31.6-10.5 47.3-12 53.1-14.5 72.8-17.6 139-1.6 33.2-1.6 109.6 0 122.5.7 5.5 2.4 17.2 3.8 26 3.3 20.8 3.5 33.9.4 41.7-2.5 6.4-8.7 15.1-10.2 14.2-.5-.3-2.2-3.1-3.8-6.1l-2.8-5.7-2.8 4.7-2.7 4.7 1.1 26.8c.6 14.7 1.6 33.4 2.2 41.7 1.9 25.6.4 36.1-8 55.4-2.1 4.7-6.1 15.6-9 24.2-5.8 17.5-7.5 19.9-17.1 24.3-9.6 4.5-17.1 3.2-20.6-3.5-2.1-4.1-1-6.6 4.4-10 4.1-2.6 5.4-2.9 12.9-2.9 8.1 0 8.3-.1 8.3-2.4 0-1.9-1.3-2.9-7.9-5.9l-7.8-3.5-1.3-16.1c-1.2-15.7-1.3-16.1-3.6-16.1-3.1 0-4.9 5.6-7.4 23.4-1.1 7.6-2.9 15.7-3.9 18-2.1 4.7-6.9 9.9-11.4 12.3-4 2-15.3 2.8-19.1 1.4l-2.9-1.2 6.7-6.9c7.8-8.1 11.9-15.9 11.4-22l-.3-4.1-16.5 13c-9.1 7.2-17.2 13.1-18 13.1-.8 0-3-.9-4.8-2l-3.4-2.1 9.9-7.5c5.4-4.2 9.9-8.1 10.1-8.8.5-2.2-2.5-3.8-5.7-3.1-1.7.4-6.6 2.9-10.8 5.7-4.3 2.8-9.1 5.5-10.7 5.9-3 .9-10.6-.5-10.6-1.9 0-.4 5.2-5.9 11.5-12.2 6.3-6.3 11.5-12 11.5-12.6 0-.6-.6-1.6-1.2-2.2-2.2-1.7-8 1-15.2 7.1-6.7 5.7-12.2 8.1-15.7 6.9-1.7-.7-1.4-1.5 3.6-9.8 3-5 8.8-12.8 12.9-17.4 9.2-10.2 14.1-19.3 20.1-37.6 6.3-19 10.7-26.5 23-38.9 5.5-5.5 12.4-12.2 15.3-14.9 2.9-2.7 6.6-7.4 8.2-10.5 1.7-3.1 6.2-9.4 10-14 12-14.5 11.5-12.4 11.4-49.1 0-39.1 0-38.8-16.8-121.5-9.1-44.7-9.7-49.4-10.3-76.5-.5-27.1 0-34.4 9.7-124.5 6.6-61.3 7.8-71 8.8-70 .4.4 2.6 5.9 4.8 12.3 2.3 6.4 5.4 14.8 6.9 18.7 4.1 10.6 3.8 20.7-1.1 39-10.2 38.5-11.9 52.3-11.9 98.5.1 39.6.5 45.6 7 92 10.2 73 17.5 137.7 18.5 162.5.5 14.7 1.3 23.2 2.2 25.5l1.4 3.3 2.7-8.9c6-19.9 6.7-31.3 3.6-62.3-2.1-22.1.5-46.9 8.4-80.6 4.6-19.1 5.3-24.6 7.7-60.5 3.3-49.5 4.3-77.9 3.6-107-1-44.5-3.6-105.2-4.6-109.1-.5-1.9-2-4.5-3.3-5.8l-2.4-2.2-.7 38.3c-1.1 63.3-2.8 104.2-8.1 197.8-3.5 62-3.3 60-5.6 60-1 0-1.9-.2-1.9-.3 0-.2-1.8-12.7-3.9-27.8-8.8-61.2-11-83.5-11.8-118.6-.8-38-.3-42.1 16.2-121.3 3.5-16.8 6.6-32.5 7-35 .7-4.4.7-4.5-1.2-2.8-1.1 1-3.7 4.3-5.9 7.3-4.9 6.8-6.9 7.2-6 1.2 1.8-11.2 4.6-40.1 5.6-57.2 1.9-35.1 1-75.7-2.8-134.2-1-13.9-1.4-24.9-1.1-24.5.3.4 3.4 8.2 6.8 17.5 9.7 26.4 11.4 36 9.7 55.4-1 11.4-.2 14.1 10.2 34.8 6.7 13.2 8.4 15.7 15.1 22.5 7.1 7 14.4 12 15.7 10.8.7-.7-3-15-5.9-23.1-1.3-3.5-4.4-9.2-7-12.8-7.9-11.1-10.9-18.7-11.5-28.9-.6-11.7.8-18.7 7.3-34.5 6.9-17.1 10.8-28.9 15-46 3.3-13.5 10.5-51.6 10.5-55.8 0-3.5.8-1.4 2.4 6.1zm386.2 16.2c5.9 33 12.8 57.9 21.8 79.2 6.5 15.1 7.9 21.4 7.4 33.3-.4 11.5-2.6 17.4-11.5 30.6-2.8 4.1-5.7 9.2-6.6 11.5-2.2 5.7-6.9 23.3-6.5 24.4.6 1.8 12.3-6.7 18.1-13.1 4.6-5 7.8-10.2 14.5-23.8l8.7-17.4v-20.6c.1-20.3.1-20.7 3.3-30.6 3.1-9.7 12.5-35.1 13.3-35.9.2-.3-.3 11.1-1.3 25.2-5.2 80.4-4.7 137.1 1.7 183.1.8 5.8 1.5 10.8 1.5 11.3 0 1.3-2.7.9-3.3-.5-.8-2-9.9-12.9-10.4-12.3-.5.5 1.7 11.9 11.3 58.1 11.1 53.3 11.6 56.6 12.1 85 .7 35.6-1.8 65.5-10.7 129.4-5 35.6-4.7 34.1-7.1 34.1-1 0-1.9-.3-1.9-.8 0-.4-1.3-23.7-3-51.7-6-105-7.8-149.5-8.2-207.7l-.3-36.7-2.8 2.7c-1.5 1.4-3.2 4.2-3.7 6.2-.9 3.5-3.4 63.2-4.6 109.5-.6 26.7.4 57.2 3.6 106 2.2 33.2 3.6 44 8.1 62.5 7.5 30.9 10.1 56.8 8 79.2-3 31.7-2.4 42 3.6 62.2l2.7 9 1.4-3.5c1-2.3 1.7-10.1 2.2-24.9.8-22.5 6.1-70.6 15.6-141 9.6-71.4 10.5-81.2 10.5-115.5 0-39.6-2.5-58.8-12.5-97-5.6-21.2-5.3-30.2 1.8-46.5 1.8-4.1 4.3-11 5.6-15.3 1.3-4.3 2.7-8 3.1-8.2 1.1-.7 2.2 8 8.8 69.5 8.8 81.4 10.1 97 10.2 118.5 0 28.9-1 36.1-15 105-12.4 61.4-12.5 61.8-12.5 99.5-.1 36.7-.6 34.7 11.5 49.1 3.9 4.6 8.3 10.9 9.9 13.9 2 4 6.4 8.9 15.9 17.9 19 17.8 24 25.5 30.6 46.4 5.3 17 10.9 27.6 20 37.6 4.2 4.6 10 12.5 13 17.5 5 8.3 5.3 9.1 3.6 9.8-3.4 1.2-8.5-1-15.5-6.8-8-6.6-13.1-9.1-15.2-7.3-.8.6-1.4 1.7-1.4 2.3 0 .6 5.2 6.3 11.5 12.6s11.5 11.8 11.5 12.2c0 1.4-7.6 2.8-10.6 1.9-1.6-.4-6.4-3.1-10.7-5.9-9.2-6-13.4-7.3-15.4-4.6-.7 1-1.3 2-1.3 2.3 0 .3 4.5 4 9.9 8.1 10.4 7.9 10.8 8.6 5.1 11-3.7 1.5-4.5 1-24-14.4l-13.5-10.7-.3 4.1c-.5 6 3.4 13.5 11.3 21.8l6.7 7.2-2.7 1c-3.4 1.3-11 1.3-15.9-.1-5.1-1.4-13.1-9-15.1-14.2-.8-2.3-2.4-10.5-3.5-18.2-2.5-16.8-4.3-22.5-7.5-22.5-2.1 0-2.2.6-3.5 16.1l-1.3 16.1-7.9 3.6c-6.5 2.9-7.8 3.9-7.6 5.6.3 1.9 1.1 2.1 8.9 2.6 7.1.4 9.2.9 12.7 3.2 4.9 3.3 5.8 5.7 3.8 9.7-3.6 6.9-11.1 8-21.1 3.2-9.4-4.5-10.6-6.4-17.8-27.1-3.6-10.2-8.1-22.5-10.2-27.5-6-14.2-7.2-23.5-5.7-45.7.6-10 1.7-30.3 2.3-45l1.2-26.6-5.6-9.6-3.1 6.2c-1.7 3.4-3.4 6.2-3.8 6.2-1.5 0-7.8-9.4-9.9-14.8-3.2-8.2-2.9-20.8 1-45.2 4.6-28.3 5.7-57.8 4.2-110.4-2.3-81.7-5.1-112.2-14.6-155.6-19.5-89.6-23.8-106.1-34.1-130.7-5.1-12.3-9-19.6-21.7-40.7-13.8-23-22.7-43.1-29.2-66.1-2.8-9.8-5.8-26.5-4.9-27.4.7-.8 5.3 4.8 10.5 12.7 3.6 5.4 5 9.3 10 28 8.3 31.1 11.4 38.7 23.3 57.5 6 9.5 30 43 31.9 44.5.7.5 2.7 1.2 4.5 1.4 3 .4 3.3.2 4.2-3.4.8-2.8.8-4.4-.1-6-2-3.8-8.6-12.4-16.5-21.6-18.4-21.2-25.8-36.4-36.9-75.2-4.3-15-5-18.6-3.8-18.8 2.4-.6 6.1.7 6.5 2.3.9 4.1 37.4 84.4 38.3 84.2.6-.2 1.8-1.9 2.8-3.8 1.5-2.9 1.8-5.2 1.4-15.4-.4-13.5-2-18.6-8.7-29-16.5-25.6-21.5-58.6-15.9-106.7 1.8-15.5 2-21.5 1.5-39.3-.3-11.6-.9-22.1-1.3-23.4-.5-2 .1-1.8 5.7 2.3 6.5 4.8 9.9 6.2 12.5 5.2 2.3-.8 6.4-10.3 7.7-17.8l1.2-6.3.8 5c.5 2.7 2 11.5 3.4 19.5zm-459.1 155.5c.4 8.1.2 21.4-.4 31.5-1.3 18.7-4.6 46.8-5.6 47.9-.9.8-7.8-7.1-11.1-12.6-4.4-7.4-4.3-12.5 1-33.1 2.6-10 6.4-26.6 8.7-36.9 2.2-10.4 4.3-19.7 4.6-20.8.9-2.6 1.9 5.9 2.8 24zm532.5-8c1.7 8.8 5.6 25.6 8.6 37.4 3 11.8 5.4 23.6 5.4 26.1 0 2.9-.9 6.4-2.5 9.6-2.8 5.4-11 15.2-11.9 14.3-1.1-1-4.4-30-5.7-48.9-1.3-20 .1-57.6 2.1-55.3.4.4 2.2 8 4 16.8zm-438.4 158.5c1.1 8.3 1.7 18.7 1.7 31 .1 21.6-1.1 29.5-8 52.9-2.5 8.6-10.1 35.8-16.8 60.6l-12.4 45v-19.1c-.2-40.9 6.1-81.9 22.6-146.9 4.1-16.5 8-31.9 8.6-34.3 1.4-5.9 2.1-4.1 4.3 10.8zm347.7 11c18.2 70.1 24.5 107.8 25.4 151.5.3 14.3.3 25.8 0 25.5-.3-.3-4.6-15.8-9.7-34.5-5-18.7-12.5-45.7-16.6-60-9.5-33.1-10.7-40.3-10.7-62.5 0-18.4 3.1-47.8 4.8-45.8.1.2 3.2 11.8 6.8 25.8zm-466 293.7c1.5 27.9.3 50.1-3 58.5-4.1 10.4-17.6 27-21.3 26.1-1.8-.5-1.9-1.2-1.4-8.2 1.1-16.1 2.3-20.7 9-34.2 10.4-21 14.4-34.9 14.4-49.3 0-10.7 1.7-5.5 2.3 7.1zm577-3c.8 13.3 4.3 24.7 13.3 43.3 7.7 16.2 8.6 19.3 9.8 35.6.6 7.5.5 8.2-1.3 8.7-3.4.8-15.1-12.9-20.2-23.6-2.7-5.9-3.2-8.4-4.1-20.4-1.1-14.2-.2-53.3 1.2-53.3.4 0 1 4.4 1.3 9.7z"/><path d="M-95.435 251.173c-5.5 1.4-16.3 8-22.7 14-2.7 2.4-3.7 5.1-2 5.1 1.6 0 12.5-4 20.8-7.5 12.8-5.5 23.1-6.2 39.4-2.5 4.2.9 6.5.9 9.8 0 3.9-1 4.3-1.4 4-3.8-.5-4.8-4-5.5-26.3-5.8-11-.2-21.3 0-23 .5zM54.065 251.173c-6.3 1-9 2.7-9 5.6 0 3.6 6.4 5.2 14 3.5 16.6-3.7 26.5-3 40.4 2.9 22.6 9.5 27.1 8.7 12.5-2.2-13-9.9-13.9-10.1-34.9-10.3-10.2-.1-20.5.1-23 .5zM-64.435 287.073c9.8 5.4 16.2 10.4 20.7 16.6l3.1 4.1-.6-4.3c-1.1-8.6-9.9-16.8-21.2-19.7-11.1-2.8-11.7-1.9-2 3.3zM64.565 282.973c-4.8 1-11.3 3.8-15.1 6.5-4.6 3.3-9.4 11.1-9.4 15.3 0 2.8 0 2.7 2.9-1.2 4.3-5.9 10.9-11.1 20.9-16.5 7.1-3.9 8.1-4.8 5.7-4.7-1.6.1-3.9.3-5 .6zM-112.735 300.873c1.4 3 5.7 12.3 6.6 14.6 1.5 3.7 5 5.7 14.5 8.6 12.3 3.6 30.4 4.2 41.6 1.3 13-3.2 17.4-6.7 13.6-10.5-2.3-2.3-9.7-2.1-14.7.5-7 3.6-17.1 5.2-25.2 3.9-10.3-1.6-27.6-10.1-27.6-13.6 0-.8-1-2-2.2-2.8-2.9-1.8-7.2-3.1-6.6-2zM107.365 301.972c-1.8.9-3.3 2.4-3.3 3.4 0 3.7-16.9 12.2-27.6 13.9-8.1 1.3-18.2-.3-25.2-3.9-2.6-1.3-6-2.1-9.2-2.1-4.4 0-5.2.3-6.2 2.5-1.6 3.5.1 5 8.8 8.2 9.9 3.6 27.1 4.3 40.4 1.5 11.3-2.3 19-5.7 20.7-9.2.7-1.4 2.4-5.2 4-8.5 1.5-3.3 2.9-6.3 3.1-6.8.6-1.2-2.1-.7-5.5 1zM-44.035 363.373c-4.2 10.1 2.6 25.8 10.2 23.4 2.9-.9 2.3-4.8-1.2-8.1-4-3.7-5.9-7.5-6-11.6 0-1.8-.4-4.2-.8-5.2-.6-1.6-.9-1.5-2.2 1.5zM40.565 365.373c-.9 6.5-2.3 9.4-6.4 13.3-5.3 5-3.2 10.1 3.1 7.7 5.8-2.2 9.3-16.7 5.6-23.5l-1.6-3-.7 5.5zM-28.935 367.172c-1.4 2.7-1.3 6.4.4 8.6 1.2 1.7 1.7 1.8 4.1.7 2.1-1 3.9-1 8.6 0 3.2.6 6.2.9 6.6.5 1.5-1.6-12.7-11.7-16.4-11.7-1.2 0-2.7.9-3.3 1.9zM18.365 367.972c-7.1 5-10.8 8.2-10 8.9.4.5 3.4.2 6.6-.4 4.7-1 6.5-1 8.6 0 2.4 1.1 2.9 1 4.1-.7 2.9-3.9 1-10.5-3-10.5-1.3 0-4.1 1.2-6.3 2.7zM-18.935 412.273c-2.4 1.2-6.7 3.8-9.5 5.9-7.7 5.8-9.5 6.5-17.4 6.7-6.8.1-7.7.4-9.8 2.8-1.5 1.7-2.3 4-2.3 6.3 0 3.5.1 3.5 3.2 2.9 1.8-.3 4.5-2 6.1-3.7l2.8-3.1 8.7.5c7.3.4 10 1.1 17.2 4.3 7.6 3.4 9.5 3.9 18.1 4.2 9.3.4 9.7.3 21.1-4.2 10-4 12.6-4.6 18.8-4.6 6.6 0 7.3.2 9.8 3 1.5 1.6 4.2 3.3 6 3.6 3.1.6 3.2.6 3.2-2.9 0-2.3-.8-4.6-2.3-6.3-2.1-2.4-3.1-2.7-9.8-2.9-8.3-.2-9.8-.8-18.1-7.2-8.3-6.3-12-7.6-19.3-6.9-7.7.8-7.8.8-15.5.1-5.4-.5-7.3-.2-11 1.5zm23.1 6.1c10-.1 10.9.1 16.9 3 4.2 2.2 5.8 3.4 4.9 3.9-1.7.9-18.3 2.4-26.4 2.4-7.9 0-24.7-1.5-26.3-2.3-.8-.5.4-1.7 3.6-3.4 5.7-3.1 11.8-4.7 14.7-3.9 1.1.3 6.8.4 12.6.3z"/><path d="M-28.935 442.173c2.9 10.1 11.7 15.1 26.6 15.1 17.3 0 27.6-5.1 30.4-15.1.5-1.6.6-2.9.3-2.9s-2.4 1.6-4.6 3.6c-2.2 2-6.5 4.8-9.6 6.3-4.8 2.2-6.9 2.6-15.1 2.6-8.4 0-10.1-.3-14.8-2.8-2.9-1.5-7-4.3-9.1-6.2-4.7-4.2-5.2-4.3-4.1-.6zM-16.435 874.072c-1.6 1.1-11.3 8.8-21.5 17.2-10.2 8.4-22.3 18-26.9 21.4-4.6 3.3-10.2 7.7-12.4 9.6-6.5 5.7-7 8-6.8 28 .2 26.6 2 65.098 3.2 68.698 2.6 8.1 9 8.3 27.7.9 7.5-3 18.6-6.8 24.7-8.6 6-1.8 12.7-4.1 14.8-5.2 7.3-3.7 7.1-1.6 6.3-69.998-.3-33.4-.9-61.4-1.2-62.3-.8-2-4.2-1.9-7.9.3zm-1.9 67.8c-.5 31.3-1.1 48.5-1.9 50.1-.6 1.4-2.2 3-3.6 3.8-2.4 1.2-45 15.498-46.2 15.498-.3 0-1.1-14.298-1.8-31.798-.6-17.4-1.3-33.9-1.5-36.6-.5-7 .8-10.6 5.1-14.8 4-3.8 48-33.8 49.6-33.8.6 0 .7 17.1.3 47.6zM7.765 873.773c-.4.8-.9 28.8-1.3 62.2-.8 68.497-1 66.397 6.3 70.097 2.1 1.1 8.8 3.4 14.8 5.2 6.1 1.8 17.2 5.6 24.8 8.6 18.4 7.2 24.2 7.2 27.2 0 1.3-3.1 2.4-22.697 3.9-69.097.4-15.6-.6-22-4.5-26.1-1.3-1.5-7.3-6.3-13.4-10.8-6-4.5-19-14.9-28.9-23-9.8-8.1-19.3-15.7-21-16.7-3.7-2.3-7.2-2.5-7.9-.4zm33.5 35.7c30.9 20.7 32.2 22.1 31.3 34.5-.2 3.8-1 20.4-1.6 37-.7 16.7-1.5 30.297-1.8 30.297-1 0-40.4-13.097-44.4-14.797-2.1-.9-4.4-2.7-5.2-4.1-1-2-1.5-13.9-2-50.5-.7-44.1-.6-47.9.9-47.3.9.4 11.1 7 22.8 14.9zM-32.935 1019.87c-17 3.6-33.7 17-41.9 33.4-5.5 11.3-6.3 18.5-6.5 63.7-.2 49.1-2.2 47.6 37.8 28.2 13.8-6.7 26.1-13.1 27.4-14.2 3.4-3.1 4-6.9 5.7-36.2.9-14.9 2-33.5 2.5-41.5 1.5-22.3 1.3-31.6-.6-33.4-2-2-15.1-2-24.4 0zm15.6 13c.4 1.5.4 7.2.1 12.8-.6 10.4-6.3 65.2-7.3 69.5-1 4.5-5.9 7.7-24.5 15.9-10.2 4.5-19.1 8.2-19.7 8.2-.9 0-1.2-4.7-1.2-17.3-.1-9.4-.5-25.7-1-36.2-1.2-23.8-.7-25.9 6.9-33.6 12.3-12.2 30.5-21.6 42.3-21.8 3.3-.1 3.9.3 4.4 2.5zM7.465 1019.97c-1.5 1.6-1.6 3.4-1.1 17.3.8 19.7 4.6 82.4 5.3 86.8.3 1.8 1.7 4.6 3.2 6.1 1.6 1.7 13 7.8 27.8 15 28.3 13.8 32 14.7 35.8 9.8 2.1-2.8 2.1-3.5 2-38.5-.2-44.8-.9-51.8-6.5-63.2-8.3-16.7-24.9-29.8-42.4-33.5-10-2.1-21.9-2-24.1.2zm21.9 11.9c11.1 2.8 24.2 10.8 33.7 20.3 7.9 7.9 8.2 9.5 7 34.2-.5 11.2-1 27.8-1 36.8v16.3l-2.5-.6c-1.4-.4-10.7-4.3-20.7-8.9-12.7-5.7-18.7-9-20.1-10.9-1.7-2.3-2.6-7.5-5.3-32-3.7-32.7-5-50.3-4-54.2.8-3.2 3.7-3.4 12.9-1zM-35.635 1151.77c-23.8 11.3-37.1 21.2-42 31.4l-2.8 5.6-.8 31.5c-.8 33.6.2 56.4 2.7 62.4 3 7.2 9.8 6.2 24.1-3.4 5.8-4 13.6-8.5 17.2-10 9.4-4 14.6-8 17.2-13.2 2.3-4.9 3.7-18.2 6.6-62.8 1.8-28.3 1.9-39.9.2-42.1-4-5.3-10.6-5.1-22.4.6zm12 20.7c-2.2 25-6.4 68.1-7 72.8-.8 6.6-7.6 12.8-23.4 21.2-6.9 3.8-13 6.8-13.6 6.8-.6 0-1.4-1.2-1.7-2.8-1.3-5.3-1.7-31.9-.9-55.4l.8-23.6 3-4.3c2.4-3.4 7.1-6.7 23.5-16.6 11.2-6.7 20.5-12.3 20.5-12.3.1 0-.5 6.4-1.2 14.2zM14.165 1149.87c-3 2.5-3.1 2.8-3.1 10.8 0 9.1 2.3 45.7 4.5 72.9 1.3 16 1.8 18.4 4.2 22.9 3 5.6 7.8 9.3 16.6 12.7 3.1 1.3 10.7 5.7 16.8 9.8 6.1 4.1 12.6 7.7 14.4 8 5.5.9 8.5-.4 10.1-4.2 2.4-5.8 3.5-26.7 3-59.7-.4-29.2-.5-31.7-2.6-37.1-4.3-11.5-17.8-22.1-43.2-34.2-11.4-5.4-16.1-5.8-20.7-1.9zm27.5 20.4c9.3 5.6 18.4 11.3 20.3 12.7 6.5 5 6.9 7.1 7.7 43.3.7 32.6-.2 47-2.8 47-.6 0-6.7-3-13.6-6.8-11.9-6.4-20.2-12.5-22.2-16.1-1.1-2.1-3.1-20.1-6.5-58.4-2.9-32.8-3-33.1-1.1-32.4.7.3 8.9 5.1 18.2 10.7zM-6.335 1263.17c-7.2 7.5-7.5 24.5-.5 31 2.6 2.4 9.3 2.9 12 .8 3.6-2.7 5.9-8.1 5.9-13.8 0-11.6-5.1-20.9-11.5-20.9-2.1 0-4 .9-5.9 2.9zM-37.035 1284.27c-8.2 2.4-27.9 10-34.7 13.4-8.8 4.4-8.6 3.8-9.4 37.6-.8 33 0 47.4 3.8 68 3 16.1 10.3 45.6 14.9 59.6 7.9 24.2 19.9 41.5 36.8 53.2 10.4 7.3 15.2 6.5 18.4-3 1.5-4.8 1.7-11.7 2.1-68.8.5-83.4-1.2-113-7.8-138.8-5.8-23-8.7-25.6-24.1-21.2zm14.7 26c2.6 15.5 2.6 15.7 3.5 93.5.5 42.9 1.2 83.6 1.5 90.4l.7 12.3-2.4-1.2c-5.3-2.8-15.1-11.5-19.5-17.3-7.9-10.4-11.8-20.1-17.8-43.8-6.2-24-9.8-42.6-12.2-61.7-1.8-14.6-3.4-65.2-2.2-69.8 1.4-5.2 4.9-7.3 22.5-13.4 9.2-3.2 17.9-6.2 19.3-6.8 3.3-1.3 3.3-1.2 6.6 17.8zM20.065 1285.07c-5.2 5.2-10.5 26.5-13.7 54.2-1.5 13.4-1.7 25.7-1.8 91.5 0 70 .1 76.5 1.8 81.7 3.1 10.1 7.7 11 18.4 3.6 16.9-11.6 28.6-28.6 36.8-53.1 4.5-13.6 11.9-43 15-60 3.8-20.9 4.4-32.4 3.8-66-.7-36.7-.2-34.9-12.6-40.7-16-7.4-35.7-14-42-14-1.8 0-3.9 1-5.7 2.8zm35.1 16.8c8.7 2.7 12.6 5.4 14.4 9.8 1.4 3.6.4 50-1.5 67.6-3.4 31-15.3 81.7-22.5 96.2-6.3 12.4-17.3 24.5-26.8 29.4l-2.9 1.6.6-11.4c.3-6.2 1-46.9 1.5-90.3.9-78.3 1-79.1 3.5-94 1.4-8.3 2.8-16 3.1-17.1.5-2.2.6-2.1 11.7 1.8 6.2 2.2 14.7 5.1 18.9 6.4zM-256.335 2624.87c-2.7 13.3-3.8 39.5-2.6 62.9.5 11 1.3 31.5 1.7 45.5.6 22.9.8 25.1 2 21.6 4.1-12 6.3-36.1 6.3-69.5 0-25.4-1.2-43.8-3.6-54-1.9-8.5-3-10.3-3.8-6.5zM252.765 2627.27c-3.4 11.8-4.2 22.9-4.2 59.5.1 38 1.3 53 5.3 66.1l1.8 5.9.7-24.5c.4-13.5 1.1-34 1.7-45.5 1.2-21.3.8-36.4-1.2-53.5-1.5-13.5-2.2-14.8-4.1-8z"/></g><path id="Biceps-left" fill-rule="evenodd" clip-rule="evenodd" d="M281.707 826.154c-.388.163-.805.37-1.278.606a2.777 2.777 0 0 1-1.402.318c-.135-.004-.277-.015-.409-.025l-.15-.012a5.029 5.029 0 0 0-.431-.013c.003.068.015.165.042.293.04.186.099.382.156.575l.017.056c.03.101.061.206.084.298.02.083.046.2.046.313 0 .381.147.791.364 1.286l.105.236c.184.409.394.875.497 1.339.135.61.208 1.204.279 1.783.031.251.061.499.096.744.067.468.25.882.467 1.37l.003.005c.208.469.448 1.009.527 1.64.095.754.348 1.536.605 2.326l.094.294c.206.639.393 1.346.581 2.052.122.461.244.921.371 1.362.331 1.149.71 2.229 1.25 3.118.354.584.427 1.249.481 1.804l.009.097c.053.55.096 1 .276 1.4.253.561.41 1.15.557 1.701l.002.008c.151.564.292 1.092.513 1.596.266.609.445 1.273.596 1.915.051.216.099.428.146.635.095.424.186.83.296 1.224.147.531.316 1.062.489 1.604l.059.185c.191.603.383 1.217.542 1.835.188.729.364 1.459.539 2.187.48 1.994.957 3.973 1.659 5.879.158.428.166.847.168 1.187l.001.072c.001.327.002.573.066.813.073.272.217.498.41.802l.037.057c.199.314.441.708.523 1.22.309 1.929 1.024 3.898 1.73 5.841.194.535.388 1.068.572 1.598 1.058 3.041 2.208 6.286 3.627 9.125 1.355 2.71 2.161 5.868 2.771 8.751.3 1.418.813 2.781 1.342 4.183l.234.624c.6 1.608 1.177 3.276 1.364 5.055.071.672.298 1.273.583 1.903.069.153.143.31.219.471.227.482.47.998.651 1.54.164.494.233 1.003.294 1.458l.024.179c.071.517.151.97.344 1.393.078.169.161.327.246.489l.036.067c.073.138.15.282.221.428.169.349.316.734.37 1.216.186 1.676.511 3.296.865 4.928l.224 1.021c.285 1.294.574 2.604.806 3.943.117.678.384 1.36.671 2.092l.048.125c.295.755.605 1.571.687 2.392.155 1.547.581 3.142 1.133 4.614.528 1.409.969 2.827 1.405 4.228a100 100 0 0 0 .203.651c.505 1.618 1.022 3.212 1.685 4.784.452 1.07.918 2.141 1.386 3.215.961 2.209 1.927 4.43 2.789 6.686.673 1.764 1.495 3.869 2.369 5.471.407.745.614 1.522.797 2.242l.032.125c.175.687.335 1.317.622 1.917 2.451 5.126 3.882 11.017 5.248 16.641.303 1.245.602 2.476.908 3.682.388 1.531.91 3.011 1.438 4.509l.13.37c.569 1.616 1.131 3.254 1.497 4.95.284 1.31.699 2.139 1.295 3.329l.102.204c.383.765.552 1.591.707 2.351l.002.01c.16.79.307 1.5.622 2.14a135.27 135.27 0 0 0 1.654 3.26c.995 1.91 1.999 3.85 2.82 5.81.456 1.09 1.157 2.1 1.921 3.14.121.17.243.33.367.5.645.87 1.309 1.77 1.836 2.7.806 1.44 1.67 2.86 2.542 4.29l.05.09c.855 1.4 1.718 2.82 2.533 4.26 1.661 2.94 3.139 5.98 3.978 9.24.14.55.455 1.01.853 1.52.06.08.123.16.187.24.341.43.724.92.991 1.47.382.78.727 1.58 1.067 2.37l.06.14c.361.84.719 1.66 1.121 2.46.641 1.29 1.345 2.57 2.057 3.87.237.43.475.86.712 1.3.944 1.73 1.866 3.5 2.612 5.28 1.095 2.63 2.89 5.21 4.6 7.67.292.42.581.83.864 1.24.104.15.208.31.314.46 1.873 2.73 4.151 6.05 6.558 7.97 1.336 1.07 2.705 2.52 3.985 3.88.576.61 1.134 1.2 1.662 1.73 2.039 2.04 4.863 3.61 7.551 5.1.478.27.952.53 1.416.79 1.087.62 2.243 1.14 3.426 1.66l.201.08c1.112.49 2.248.99 3.335 1.58.672.36 1.389.52 2.171.64.161.03.327.05.495.08.63.09 1.305.19 1.961.38 1.086.33 2.065-.07 2.994-.84.855-.71 1.59-1.68 2.235-2.53.063-.09.125-.17.186-.25 2.514-3.3 3.666-7.48 3.901-11.71.032-.58.19-1.13.334-1.62.013-.04.027-.09.04-.14.157-.54.289-1.04.289-1.61v-9.53c0-2.04.06-4.1.12-6.18.158-5.46.317-10.97-.61-16.16-.46-2.57-.817-5.16-1.173-7.74-.222-1.61-.445-3.22-.692-4.83-.083-.54-.173-1.08-.265-1.63-.344-2.07-.7-4.21-.7-6.38 0-1.57-.116-2.84-.7-4.27-.479-1.17-.666-2.39-.818-3.56l-.053-.42c-.133-1.04-.26-2.03-.547-3-1.49-5.01-2.752-10.048-3.191-15.316-.133-1.597-.42-3.15-.711-4.729a97.564 97.564 0 0 1-.447-2.557c-.328-2.097-.728-4.072-1.297-6.102-.184-.659-.363-1.318-.542-1.975-.966-3.556-1.915-7.048-3.658-10.278-1.058-1.962-1.754-4.137-2.351-6.32-.203-.746-.395-1.489-.584-2.225-.371-1.441-.736-2.857-1.177-4.228-.401-1.248-.695-2.569-.985-3.866l-.195-.871c-.362-1.586-.753-3.118-1.365-4.509-.85-1.933-1.444-3.988-2.029-6.011l-.112-.385c-.625-2.159-1.259-4.274-2.204-6.24-.286-.595-.595-1.207-.91-1.832-1-1.979-2.063-4.084-2.661-6.177-.691-2.418-1.844-4.742-3.075-7.08-.186-.354-.374-.708-.563-1.062-1.05-1.977-2.111-3.974-2.912-6.013-.627-1.596-1.565-3.063-2.553-4.57l-.169-.258c-.926-1.411-1.881-2.866-2.581-4.447l-.789-1.788c-1.319-2.997-2.62-5.952-4.088-8.887-1.654-3.308-4.667-6.395-7.306-9.095-.99-1.013-1.958-2.08-2.922-3.142-.515-.567-1.029-1.133-1.543-1.688-1.489-1.606-3.009-3.147-4.673-4.479-2.093-1.674-3.945-3.615-5.77-5.527-.752-.788-1.499-1.572-2.257-2.329-.919-.92-2.143-1.732-3.454-2.507-.514-.305-1.051-.608-1.583-.909a57.47 57.47 0 0 1-2.271-1.328c-2.929-1.845-5.488-4.295-7.898-6.861-.959-1.021-1.887-2.052-2.806-3.073-1.413-1.569-2.804-3.114-4.247-4.557-4.361-4.361-9.553-7.993-14.647-11.555-.655-.459-1.309-.916-1.959-1.373-.795-.56-1.756-.957-2.776-1.378l-.108-.045c-1.036-.428-2.131-.889-3.018-1.579-.368-.286-.793-.391-1.308-.415a9.247 9.247 0 0 0-.826.01l-.138.007c-.249.011-.514.024-.778.024h-8.096a.5.5 0 0 1-.49-.401zm3.958-.599c-1.06-.675-1.997-.868-2.932-.736-.914.128-1.79.566-2.701 1.022l-.05.025c-.38.19-.647.22-.928.212-.108-.003-.21-.011-.328-.02a6.603 6.603 0 0 0-.189-.014 5.214 5.214 0 0 0-.684-.009.841.841 0 0 0-.533.217.874.874 0 0 0-.254.457c-.062.276-.015.585.036.821.048.227.118.461.174.649l.017.058c.031.103.055.186.072.253.014.058.017.081.017.081.002.609.233 1.188.449 1.68l.121.273c.183.409.341.762.419 1.117.125.562.188 1.078.256 1.632.032.262.065.532.106.82.087.609.322 1.135.525 1.592l.019.042c.215.484.393.897.451 1.363.107.855.392 1.734.645 2.511l.094.291c.201.625.374 1.277.554 1.955.122.464.249.941.389 1.43.337 1.169.745 2.354 1.356 3.36.22.364.285.808.341 1.381l.012.131c.048.511.105 1.122.356 1.68.215.478.354.991.505 1.556l.007.026c.145.546.303 1.138.556 1.714.228.523.391 1.114.539 1.743.046.194.091.393.136.594.098.438.199.885.315 1.303.153.551.328 1.1.5 1.64l.059.185c.191.603.376 1.193.527 1.781.179.696.35 1.406.522 2.122.485 2.011.982 4.075 1.706 6.041.091.247.104.508.106.847v.089c.001.302.002.676.101 1.048.114.428.34.78.519 1.06l.049.077c.198.311.334.553.381.842.325 2.033 1.085 4.123 1.795 6.077.19.522.376 1.034.55 1.532 1.055 3.034 2.224 6.339 3.676 9.244 1.295 2.59 2.081 5.643 2.688 8.51.317 1.5.86 2.939 1.386 4.335l.231.616c.599 1.605 1.134 3.168 1.307 4.809.088.834.368 1.552.666 2.211.083.183.165.358.246.53.219.466.426.905.586 1.386.133.397.188.808.251 1.272l.025.185c.072.522.166 1.105.426 1.673.091.197.185.377.272.541l.038.071c.074.139.14.264.202.391.14.288.239.56.276.89.192 1.73.526 3.392.882 5.031l.227 1.034c.285 1.292.567 2.573.795 3.887.135.783.437 1.554.714 2.261l.059.149c.301.773.557 1.465.623 2.128.166 1.654.618 3.335 1.192 4.866.517 1.38.949 2.769 1.385 4.171l.204.656c.506 1.62 1.035 3.254 1.719 4.874.461 1.092.932 2.174 1.402 3.254.956 2.195 1.906 4.379 2.76 6.614.669 1.755 1.513 3.923 2.425 5.594.34.623.522 1.286.706 2.01l.037.146c.169.667.352 1.388.683 2.08 2.402 5.023 3.803 10.787 5.17 16.407.304 1.254.608 2.501.92 3.731.4 1.577.936 3.099 1.461 4.588l.133.377c.569 1.618 1.111 3.202 1.463 4.829.311 1.437.777 2.367 1.368 3.547l.112.223c.316.632.464 1.333.624 2.113l.008.05c.153.74.321 1.57.693 2.33.551 1.14 1.127 2.24 1.698 3.34.979 1.88 1.946 3.74 2.754 5.67.506 1.21 1.271 2.31 2.037 3.36l.379.51c.645.87 1.265 1.71 1.758 2.58.816 1.45 1.688 2.89 2.56 4.32l.046.08c.857 1.41 1.713 2.82 2.521 4.24 1.644 2.91 3.072 5.86 3.88 9 .195.76.624 1.36 1.031 1.89.07.09.14.18.208.26.341.44.645.82.861 1.27.372.76.708 1.54 1.05 2.33l.058.14c.36.83.728 1.68 1.144 2.51.651 1.3 1.369 2.61 2.083 3.91.235.43.47.86.703 1.28.941 1.73 1.842 3.46 2.567 5.2 1.141 2.74 3.008 5.42 4.714 7.87.289.41.574.82.849 1.22.111.16.225.33.34.49 1.847 2.7 4.203 6.13 6.731 8.16 1.281 1.02 2.563 2.38 3.817 3.71.59.62 1.174 1.24 1.748 1.82 2.148 2.15 5.118 3.79 7.8 5.28.471.26.933.52 1.381.77 1.137.65 2.337 1.18 3.517 1.7l.191.09c1.121.49 2.222.97 3.272 1.54.827.45 1.682.62 2.49.75.187.03.369.06.548.08.618.09 1.198.18 1.777.35 1.541.46 2.865-.15 3.921-1.03.949-.79 1.753-1.86 2.387-2.69.065-.09.128-.17.19-.25 2.67-3.51 3.861-7.9 4.103-12.27.026-.46.152-.89.3-1.4l.037-.13c.159-.55.328-1.17.328-1.89v-9.53c0-1.97.058-4 .118-6.05.159-5.49.323-11.16-.624-16.46-.457-2.57-.808-5.11-1.161-7.67-.223-1.62-.447-3.24-.7-4.88-.087-.57-.18-1.13-.273-1.69-.342-2.06-.68-4.09-.68-6.17 0-1.62-.12-3.05-.775-4.65-.425-1.03-.599-2.14-.751-3.31l-.053-.41c-.131-1.03-.268-2.11-.581-3.17-1.483-4.98-2.722-9.943-3.153-15.109-.137-1.642-.439-3.286-.736-4.899-.152-.829-.304-1.65-.43-2.458-.332-2.127-.741-4.141-1.322-6.217-.18-.645-.356-1.293-.533-1.944-.965-3.555-1.948-7.174-3.75-10.515-1.002-1.858-1.675-3.944-2.266-6.108-.195-.715-.383-1.442-.571-2.172-.375-1.459-.754-2.927-1.203-4.324-.385-1.2-.668-2.465-.957-3.761l-.2-.892c-.363-1.591-.771-3.204-1.424-4.69-.823-1.869-1.4-3.864-1.989-5.902l-.107-.369c-.624-2.153-1.278-4.344-2.264-6.395-.305-.636-.628-1.275-.951-1.916-.99-1.96-1.99-3.942-2.559-5.935-.722-2.526-1.92-4.931-3.152-7.271l-.57-1.076c-1.051-1.978-2.081-3.918-2.859-5.898-.67-1.706-1.665-3.254-2.647-4.753l-.157-.239c-.938-1.429-1.85-2.82-2.515-4.323l-.786-1.78c-1.319-2.997-2.632-5.978-4.112-8.937-1.728-3.457-4.841-6.642-7.443-9.305l-.041-.042a112.406 112.406 0 0 1-2.879-3.095c-.518-.57-1.039-1.144-1.569-1.716-1.499-1.617-3.058-3.201-4.782-4.58-2.037-1.63-3.815-3.493-5.62-5.385a140.49 140.49 0 0 0-2.324-2.398c-1.012-1.012-2.326-1.876-3.651-2.66-.556-.329-1.106-.639-1.641-.941a53.664 53.664 0 0 1-2.19-1.281c-2.82-1.776-5.31-4.152-7.702-6.7-.926-.985-1.843-2.004-2.76-3.022-1.431-1.589-2.861-3.176-4.315-4.63-4.427-4.428-9.696-8.112-14.782-11.668-.655-.459-1.308-.915-1.955-1.371-.889-.625-1.944-1.061-2.932-1.469a21.85 21.85 0 0 1-.146-.06c-1.055-.436-2.023-.851-2.786-1.444-.593-.461-1.25-.596-1.875-.625-.31-.014-.622-.003-.919.01l-.144.007c-.25.012-.488.023-.726.023h-4.628z"/></g><g id="face-left"><path id="Biceps-left_2" d="M282.661 825.775h3.32m0 0h4.776c1.192 0 2.396-.268 3.356.48 1.65 1.283 4.127 1.751 5.883 2.987 5.686 4.001 11.712 8.023 16.672 12.983 4.768 4.769 9.114 10.802 14.864 14.422 2.318 1.459 5.464 2.882 7.395 4.813 2.634 2.634 5.058 5.478 7.985 7.819 3.388 2.711 6.157 6.252 9.185 9.35l.011.013c2.622 2.683 5.691 5.822 7.384 9.208 1.765 3.531 3.292 7.093 4.887 10.697 1.444 3.263 4.014 5.993 5.311 9.294 1.864 4.744 5.153 9.256 6.565 14.201.772 2.699 2.324 5.397 3.541 7.93 1.931 4.016 2.576 8.612 4.353 12.651 1.265 2.876 1.597 6.29 2.563 9.295 1.339 4.166 2.015 8.868 4.076 12.688 2.098 3.889 3.065 8.156 4.241 12.356.575 2.052.98 4.047 1.31 6.159.38 2.438.956 4.855 1.161 7.322.435 5.217 1.686 10.217 3.172 15.217.68 2.28.498 4.73 1.402 6.93.62 1.51.738 2.87.738 4.46 0 2.7.558 5.33.959 7.93.648 4.22 1.116 8.38 1.862 12.56 1.29 7.23.498 15.1.498 22.43v9.53c0 1.28-.6 2.26-.664 3.4-.238 4.29-1.409 8.58-4.002 11.98-1.349 1.77-3.329 4.59-5.956 3.8-1.579-.47-3.221-.33-4.721-1.14-2.262-1.22-4.746-2.06-6.971-3.32-3.035-1.72-6.61-3.51-9.074-5.98-1.75-1.75-3.695-4.04-5.606-5.57-2.615-2.09-5.06-5.75-6.971-8.53-1.922-2.8-4.206-5.86-5.514-9-1.47-3.53-3.646-6.98-5.367-10.42-.818-1.64-1.453-3.34-2.25-4.98-.577-1.19-1.731-2.02-2.065-3.32-1.648-6.41-5.813-12-9.055-17.76-1.217-2.16-3.188-4.1-4.15-6.4-1.284-3.07-2.993-6.01-4.463-9.04-.693-1.43-.627-3.1-1.327-4.497-.648-1.296-1.124-2.196-1.439-3.651-.718-3.324-2.207-6.445-3.061-9.812-1.701-6.702-3.157-14.029-6.123-20.23-.66-1.38-.692-2.893-1.438-4.26-.893-1.637-1.726-3.774-2.398-5.533-1.276-3.343-2.778-6.592-4.168-9.885-1.347-3.191-2.092-6.457-3.301-9.682-.563-1.501-1.002-3.139-1.162-4.739-.148-1.484-1.132-3.019-1.401-4.574-.581-3.355-1.521-6.517-1.9-9.922-.09-.812-.493-1.312-.83-2.047-.454-.99-.346-2.07-.682-3.079-.461-1.382-1.317-2.515-1.475-4.021-.36-3.42-2.224-6.462-2.933-9.811-.608-2.875-1.404-5.981-2.729-8.631-1.436-2.871-2.595-6.147-3.652-9.184-.838-2.41-1.92-5.006-2.323-7.524-.128-.801-.757-1.272-.959-2.029-.178-.667.027-1.353-.221-2.028-.971-2.634-1.522-5.427-2.213-8.115-.31-1.205-.754-2.41-1.089-3.614-.332-1.198-.519-2.575-1.014-3.707-.477-1.09-.6-2.259-1.069-3.301-.463-1.029-.163-2.299-.738-3.246-1.151-1.896-1.572-4.531-2.25-6.639-.279-.868-.606-1.805-.719-2.711-.138-1.099-.84-1.911-.996-3.006-.122-.854-.18-1.638-.369-2.49-.219-.987-.977-1.975-.977-2.969 0-.374-.778-1.983 0-2.028.92-.055 1.394.243 2.323-.222l.004-.002c1.898-.949 3.253-1.626 5.308-.256z" stroke="#CD0F0F" stroke-linecap="round" stroke-linejoin="round"/></g></g></svg>